<svg class="guide-link" xmlns="http://www.w3.org/2000/svg" viewBox="0 0 1155 1155"><path fill="#FFF" d="M0 0h1155v1155H0z"/><path d="M350 70h35v35h-35zm70 0h35v35h-35zm35 0h35v35h-35zm70 0h35v35h-35zm35 0h35v35h-35zm35 0h35v35h-35zm105 0h35v35h-35zm-350 35h35v35h-35zm70 0h35v35h-35zm70 0h35v35h-35zm35 0h35v35h-35zm35 0h35v35h-35zm35 0h35v35h-35zm70 0h35v35h-35zm70 0h35v35h-35zm-385 35h35v35h-35zm35 0h35v35h-35zm70 0h35v35h-35zm35 0h35v35h-35zm35 0h35v35h-35zm35 0h35v35h-35zm140 0h35v35h-35zm35 0h35v35h-35zm35 0h35v35h-35zm-385 35h35v35h-35zm35 0h35v35h-35zm35 0h35v35h-35zm35 0h35v35h-35zm70 0h35v35h-35zm35 0h35v35h-35zm70 0h35v35h-35zm105 0h35v35h-35zm-420 35h35v35h-35zm105 0h35v35h-35zm35 0h35v35h-35zm35 0h35v35h-35zm70 0h35v35h-35zm70 0h35v35h-35zm70 0h35v35h-35zm-280 35h35v35h-35zm35 0h35v35h-35zm35 0h35v35h-35zm35 0h35v35h-35zm210 0h35v35h-35zm-420 35h35v35h-35zm70 0h35v35h-35zm70 0h35v35h-35zm70 0h35v35h-35zm70 0h35v35h-35zm70 0h35v35h-35zm70 0h35v35h-35zm-350 35h35v35h-35zm35 0h35v35h-35zm35 0h35v35h-35zm70 0h35v35h-35zm140 0h35v35h-35zM70 350h35v35H70zm105 0h35v35h-35zm35 0h35v35h-35zm35 0h35v35h-35zm35 0h35v35h-35zm35 0h35v35h-35zm35 0h35v35h-35zm70 0h35v35h-35zm35 0h35v35h-35zm35 0h35v35h-35zm35 0h35v35h-35zm35 0h35v35h-35zm35 0h35v35h-35zm35 0h35v35h-35zm35 0h35v35h-35zm140 0h35v35h-35zm105 0h35v35h-35zm70 0h35v35h-35zm35 0h35v35h-35zm35 0h35v35h-35zM70 385h35v35H70zm70 0h35v35h-35zm70 0h35v35h-35zm35 0h35v35h-35zm70 0h35v35h-35zm35 0h35v35h-35zm105 0h35v35h-35zm105 0h35v35h-35zm105 0h35v35h-35zm35 0h35v35h-35zm35 0h35v35h-35zm35 0h35v35h-35zm35 0h35v35h-35zm70 0h35v35h-35zm35 0h35v35h-35zm70 0h35v35h-35zm35 0h35v35h-35zM70 420h35v35H70zm35 0h35v35h-35zm175 0h35v35h-35zm35 0h35v35h-35zm70 0h35v35h-35zm35 0h35v35h-35zm35 0h35v35h-35zm105 0h35v35h-35zm105 0h35v35h-35zm35 0h35v35h-35zm105 0h35v35h-35zm175 0h35v35h-35zm-840 35h35v35h-35zm210 0h35v35h-35zm70 0h35v35h-35zm35 0h35v35h-35zm105 0h35v35h-35zm35 0h35v35h-35zm70 0h35v35h-35zm105 0h35v35h-35zm175 0h35v35h-35zm105 0h35v35h-35zM70 490h35v35H70zm35 0h35v35h-35zm140 0h35v35h-35zm35 0h35v35h-35zm70 0h35v35h-35zm105 0h35v35h-35zm70 0h35v35h-35zm35 0h35v35h-35zm70 0h35v35h-35zm140 0h35v35h-35zm70 0h35v35h-35zm35 0h35v35h-35zm175 0h35v35h-35zM70 525h35v35H70zm35 0h35v35h-35zm35 0h35v35h-35zm210 0h35v35h-35zm140 0h35v35h-35zm350 0h35v35h-35zm35 0h35v35h-35zm35 0h35v35h-35zm35 0h35v35h-35zm35 0h35v35h-35zm35 0h35v35h-35zm35 0h35v35h-35zm-875 35h35v35h-35zm105 0h35v35h-35zm35 0h35v35h-35zm70 0h35v35h-35zm35 0h35v35h-35zm140 0h35v35h-35zm35 0h35v35h-35zm70 0h35v35h-35zm35 0h35v35h-35zm35 0h35v35h-35zm35 0h35v35h-35zm105 0h35v35h-35zm35 0h35v35h-35zm70 0h35v35h-35zm70 0h35v35h-35zm-945 35h35v35h-35zm105 0h35v35h-35zm35 0h35v35h-35zm70 0h35v35h-35zm140 0h35v35h-35zm35 0h35v35h-35zm35 0h35v35h-35zm35 0h35v35h-35zm140 0h35v35h-35zm35 0h35v35h-35zm70 0h35v35h-35zm70 0h35v35h-35zm105 0h35v35h-35zm70 0h35v35h-35zm-875 35h35v35h-35zm70 0h35v35h-35zm35 0h35v35h-35zm105 0h35v35h-35zm70 0h35v35h-35zm35 0h35v35h-35zm105 0h35v35h-35zm140 0h35v35h-35zm35 0h35v35h-35zm105 0h35v35h-35zm70 0h35v35h-35zM70 665h35v35H70zm140 0h35v35h-35zm385 0h35v35h-35zm105 0h35v35h-35zm35 0h35v35h-35zm35 0h35v35h-35zm140 0h35v35h-35zm70 0h35v35h-35zm35 0h35v35h-35zM70 700h35v35H70zm35 0h35v35h-35zm35 0h35v35h-35zm35 0h35v35h-35zm70 0h35v35h-35zm35 0h35v35h-35zm70 0h35v35h-35zm35 0h35v35h-35zm35 0h35v35h-35zm70 0h35v35h-35zm35 0h35v35h-35zm35 0h35v35h-35zm35 0h35v35h-35zm35 0h35v35h-35zm105 0h35v35h-35zm175 0h35v35h-35zm35 0h35v35h-35zm105 0h35v35h-35zM70 735h35v35H70zm35 0h35v35h-35zm35 0h35v35h-35zm35 0h35v35h-35zm140 0h35v35h-35zm210 0h35v35h-35zm105 0h35v35h-35zm140 0h35v35h-35zm70 0h35v35h-35zm105 0h35v35h-35zm35 0h35v35h-35zM70 770h35v35H70zm35 0h35v35h-35zm140 0h35v35h-35zm35 0h35v35h-35zm105 0h35v35h-35zm35 0h35v35h-35zm70 0h35v35h-35zm35 0h35v35h-35zm70 0h35v35h-35zm35 0h35v35h-35zm35 0h35v35h-35zm35 0h35v35h-35zm35 0h35v35h-35zm35 0h35v35h-35zm35 0h35v35h-35zm35 0h35v35h-35zm35 0h35v35h-35zm35 0h35v35h-35zm35 0h35v35h-35zm35 0h35v35h-35zm35 0h35v35h-35zm-665 35h35v35h-35zm70 0h35v35h-35zm70 0h35v35h-35zm35 0h35v35h-35zm70 0h35v35h-35zm70 0h35v35h-35zm35 0h35v35h-35zm70 0h35v35h-35zm140 0h35v35h-35zm35 0h35v35h-35zm-595 35h35v35h-35zm35 0h35v35h-35zm35 0h35v35h-35zm70 0h35v35h-35zm35 0h35v35h-35zm70 0h35v35h-35zm35 0h35v35h-35zm35 0h35v35h-35zm70 0h35v35h-35zm35 0h35v35h-35zm70 0h35v35h-35zm70 0h35v35h-35zm35 0h35v35h-35zm-595 35h35v35h-35zm35 0h35v35h-35zm70 0h35v35h-35zm70 0h35v35h-35zm105 0h35v35h-35zm35 0h35v35h-35zm70 0h35v35h-35zm35 0h35v35h-35zm140 0h35v35h-35zm105 0h35v35h-35zm35 0h35v35h-35zm-700 35h35v35h-35zm140 0h35v35h-35zm35 0h35v35h-35zm105 0h35v35h-35zm105 0h35v35h-35zm35 0h35v35h-35zm35 0h35v35h-35zm35 0h35v35h-35zm35 0h35v35h-35zm35 0h35v35h-35zm35 0h35v35h-35zm70 0h35v35h-35zm35 0h35v35h-35zm-700 35h35v35h-35zm140 0h35v35h-35zm70 0h35v35h-35zm35 0h35v35h-35zm35 0h35v35h-35zm70 0h35v35h-35zm35 0h35v35h-35zm70 0h35v35h-35zm245 0h35v35h-35zm-665 35h35v35h-35zm70 0h35v35h-35zm140 0h35v35h-35zm70 0h35v35h-35zm105 0h35v35h-35zm35 0h35v35h-35zm70 0h35v35h-35zm35 0h35v35h-35zm70 0h35v35h-35zm35 0h35v35h-35zm35 0h35v35h-35zm-630 35h35v35h-35zm70 0h35v35h-35zm35 0h35v35h-35zm385 0h35v35h-35zm35 0h35v35h-35zm35 0h35v35h-35zm70 0h35v35h-35zm-700 35h35v35h-35zm35 0h35v35h-35zm35 0h35v35h-35zm35 0h35v35h-35zm35 0h35v35h-35zm35 0h35v35h-35zm70 0h35v35h-35zm35 0h35v35h-35zm140 0h35v35h-35zm105 0h35v35h-35zm35 0h35v35h-35zm35 0h35v35h-35z"/><path d="M278.25 70H70v245h245V70h-36.75zm0 208.25h-171.5v-171.5h171.5v171.5z"/><path fill="none" d="M876.75 106.75h171.5v171.5h-171.5z"/><path d="M1048.25 70H840v245h245V70h-36.75zm0 208.25h-171.5v-171.5h171.5v171.5z"/><path fill="none" d="M106.75 876.75h171.5v171.5h-171.5z"/><path d="M278.25 840H70v245h245V840h-36.75zm0 208.25h-171.5v-171.5h171.5v171.5zM140 140h105v105H140zm770 0h105v105H910z"/><path d="M140 910h105v105H140z"/></svg>