<?xml version="1.0" encoding="UTF-8"?><svg id="a" xmlns="http://www.w3.org/2000/svg" viewBox="0 0 54.181 16.448"><path d="M47.403,8.962c-.662,0-.761,.554-.761,.884,0,.354,.166,.954,.796,.954,.663,0,.762-.554,.762-.884v-.035c0-.318-.166-.919-.797-.919Z" style="fill:none;"/><path d="M6.322,7.128c-1.104,0-1.824,.789-2.034,1.999h4.015c-.157-1.192-.858-1.999-1.98-1.999Z"/><path d="M47.403,7.286c-1.524,0-2.437,1.175-2.437,2.56v.035c0,1.385,.999,2.595,2.472,2.595,1.525,0,2.438-1.175,2.438-2.56v-.035c0-1.385-.999-2.595-2.473-2.595Zm.797,2.63c0,.33-.099,.884-.762,.884-.63,0-.796-.601-.796-.954,0-.33,.099-.884,.761-.884,.631,0,.797,.601,.797,.919v.035Z"/><path d="M47.438,3.313c-1.549,0-2.957,.486-4.087,1.303-.522-.76-1.396-1.233-2.452-1.233-.546,0-1.067,.158-1.544,.458-.463-.29-1.01-.458-1.595-.458-.521,0-1.004,.145-1.432,.38,.078-.266,.127-.546,.127-.843,0-1.664-1.361-2.92-3.166-2.92s-3.166,1.256-3.166,2.92v.035c0,.175,.015,.346,.044,.511-.215-.05-.437-.082-.667-.082-1.282,0-2.332,.743-2.813,2l-.474,1.267-.446-1.207c-.459-1.289-1.535-2.06-2.876-2.06-.863,0-1.647,.391-2.196,.99-.815-.668-1.864-1.061-3.1-1.061-.968,0-1.744,.249-2.371,.607-.486-.338-1.078-.537-1.714-.537-1.221,0-2.269,.734-2.74,1.781-1.061-1.109-2.569-1.852-4.449-1.852C2.777,3.313,0,6.198,0,9.916c0,3.785,2.769,6.532,6.584,6.532,1.674,0,3.128-.514,4.364-1.559,.528,.867,1.474,1.453,2.561,1.453,1.5,0,2.747-1.103,2.972-2.54,.226,1.438,1.472,2.54,2.971,2.54,1.659,0,3.008-1.35,3.008-3.008v-.48l.605,1.4c.589,1.383,1.701,2.176,3.049,2.176h.141c1.335,0,2.445-.789,3.046-2.168l.978-2.259v1.332c0,1.658,1.35,3.008,3.009,3.008,.891,0,1.684-.397,2.235-1.015,.551,.618,1.344,1.015,2.235,1.015,1.659,0,3.009-1.35,3.009-3.008v-2.258c.551,3.089,3.264,5.371,6.634,5.371,3.801,0,6.778-2.885,6.778-6.603,0-3.663-2.962-6.532-6.743-6.532ZM9.6,10.792H4.323c.263,1.21,1.104,1.841,2.297,1.841,.736,0,1.35-.228,1.894-.631,.192-.141,.368-.21,.648-.21,.596,0,1.034,.456,1.034,1.052,0,.351-.157,.614-.351,.789-.824,.701-1.894,1.14-3.261,1.14-2.823,0-4.909-1.981-4.909-4.856v-.035c0-2.683,1.911-4.892,4.646-4.892,3.138,0,4.523,2.577,4.523,4.523,0,.771-.544,1.28-1.245,1.28Zm11.187,2.542c0,.736-.597,1.332-1.333,1.332s-1.332-.596-1.332-1.332v-4.015c0-1.262-.596-1.911-1.613-1.911s-1.665,.649-1.665,1.911v4.015c0,.736-.597,1.332-1.333,1.332s-1.332-.596-1.332-1.332V6.392c0-.736,.596-1.333,1.332-1.333s1.333,.596,1.333,1.333v.105c.613-.789,1.402-1.508,2.752-1.508,2.017,0,3.191,1.333,3.191,3.489v4.856Zm9.854-6.382l-2.875,6.645c-.298,.684-.789,1.157-1.508,1.157h-.141c-.719,0-1.209-.456-1.508-1.157l-2.875-6.645c-.07-.175-.141-.403-.141-.649,0-.631,.579-1.245,1.298-1.245s1.104,.403,1.298,.947l2.016,5.453,2.052-5.488c.175-.456,.543-.912,1.244-.912s1.28,.543,1.28,1.262c0,.228-.088,.508-.141,.631Zm3.981,6.382c0,.736-.596,1.332-1.332,1.332s-1.333-.596-1.333-1.332V6.392c0-.736,.597-1.333,1.333-1.333s1.332,.596,1.332,1.333v6.943Zm.158-10.379c0,.771-.648,1.262-1.49,1.262s-1.49-.491-1.49-1.262v-.035c0-.771,.648-1.245,1.49-1.245s1.49,.473,1.49,1.245v.035Zm6.417,4.646c-1.35,.316-2.104,1.35-2.104,3.244v2.49c0,.736-.597,1.332-1.333,1.332s-1.332-.596-1.332-1.332V6.392c0-.736,.596-1.333,1.332-1.333s1.333,.596,1.333,1.333v.42c.386-.912,1.017-1.753,1.806-1.753,.824,0,1.297,.543,1.297,1.297,0,.701-.455,1.122-.999,1.245Zm6.206,7.171c-2.91,0-5.066-2.157-5.066-4.856v-.035c0-2.7,2.174-4.892,5.102-4.892,2.911,0,5.067,2.157,5.067,4.856v.035c0,2.7-2.174,4.892-5.103,4.892Z"/></svg>