<?xml version="1.0" encoding="UTF-8"?><svg id="a" xmlns="http://www.w3.org/2000/svg" viewBox="0 0 210.74 63.16"><path d="M59.12,15.9c-.99-1.88-3.19-2.78-5.21-2.16-2.73,.84-5.19,2.11-7.3,3.73-.7-5.2-3.46-10.01-7.85-13.65-1.64-1.35-4-1.35-5.64,0-4.1,3.39-6.77,7.8-7.68,12.58-1.04-1.63-2.31-3.11-3.79-4.39-4.28-3.67-9.98-5.38-16.08-4.81-2.11,.2-3.79,1.87-3.99,3.99-.57,6.09,1.13,11.8,4.8,16.07,.58,.67,1.19,1.3,1.85,1.88-1.3,.68-2.21,1.98-2.36,3.51-.57,6.09,1.13,11.8,4.8,16.08,3.21,3.75,7.71,6.13,12.79,6.82l6.31,6.31c.83,.83,1.95,1.29,3.12,1.29h5.35c1.06,0,2.08-.38,2.88-1.07,2.87-2.47,5.2-5.54,6.4-8.43l4.09-9.88c4.43-2.58,7.67-6.51,9.21-11.2,1.76-5.35,1.15-11.28-1.71-16.69Zm-10.97,24.74l-4.7,11.34c-.97,2.34-2.94,4.83-5.2,6.77h-5.35l-7.42-7.42c-9.52-.56-16.15-8.17-15.21-18.24,10.07-.95,17.69,5.69,18.24,15.21l5.28,5.28v-5.55c0-2.96-1.83-7.38-3.92-9.47l-8.68-8.68c-9.52-.56-16.16-8.18-15.21-18.24,10.07-.95,17.69,5.69,18.24,15.21l8.68,8.68c.3,.31,.6,.65,.89,1.01v-5.63c-6.34-7.12-5.64-17.2,2.15-23.65,7.79,6.45,8.49,16.53,2.15,23.65v21.79c.6-.79,1.08-1.59,1.4-2.34l4.7-11.34c-3.13-9.01,1.37-18.06,11.03-21.03,4.73,8.94,1.52,18.51-7.07,22.67Z"/><path d="M44.18,39l-4.7,11.34c-.31,.75-.8,1.55-1.4,2.34V30.89c6.34-7.13,5.64-17.21-2.15-23.65-7.79,6.45-8.49,16.53-2.15,23.65v5.63c-.29-.36-.58-.71-.89-1.01l-8.68-8.68c-.56-9.52-8.18-16.15-18.24-15.21-.95,10.07,5.69,17.69,15.21,18.24l8.68,8.68c2.09,2.09,3.92,6.52,3.92,9.47v5.55l-5.28-5.28c-.55-9.52-8.18-16.16-18.24-15.21-.95,10.07,5.68,17.69,15.21,18.24l7.42,7.42h5.35c2.25-1.94,4.23-4.43,5.2-6.77l4.7-11.34c8.58-4.16,11.8-13.73,7.07-22.67-9.66,2.98-14.16,12.02-11.03,21.03Z" style="fill:#fff;"/><path d="M37.89,25.9c2.5-3.77,1.83-8.6-2.03-11.8-3.86,3.19-4.53,8.02-2.03,11.8,.45,.68,1.21,1.11,2.03,1.11h0c.82,0,1.58-.43,2.03-1.11Z" style="fill:silver;"/><path d="M94.51,37.4c-1.38,0-2.56,.88-2.98,2.13-1.27-1.21-2.99-2.27-5.75-2.27-4.39,0-8.83,3.18-8.83,9.33s4.44,9.25,8.83,9.25c2.27,0,4.02-.69,5.64-2.28-.11,2.92-1.67,4.28-4.87,4.28-1.78,0-3.37-.34-5-1.08-.34-.14-.69-.21-1.07-.21-1.47,0-2.66,1.19-2.66,2.66,0,1.14,.68,2.08,1.82,2.52,2.29,.91,4.53,1.33,7.05,1.33,3.89,0,6.65-.87,8.45-2.67,1.68-1.68,2.53-4.28,2.53-7.74v-12.1c0-1.74-1.42-3.15-3.15-3.15Zm-3.08,9.11v.07c0,2.24-1.73,3.86-4.11,3.86s-4.07-1.59-4.07-3.93,1.71-3.86,4.07-3.86,4.11,1.62,4.11,3.86Z"/><path d="M109.67,37.4c-1.19,0-2.33,.8-3.25,2.25-.39-1.3-1.6-2.25-3.02-2.25-1.74,0-3.15,1.42-3.15,3.15v13.89c0,1.74,1.41,3.15,3.15,3.15s3.15-1.41,3.15-3.15v-4.98c0-3.44,1.25-5.41,3.83-6.01,1.47-.33,2.38-1.47,2.38-2.97,0-1.84-1.24-3.08-3.08-3.08Z"/><path d="M122.68,37.26c-5.99,0-10.69,4.51-10.69,10.27v.07c0,5.72,4.67,10.2,10.62,10.2s10.69-4.51,10.69-10.34-4.67-10.2-10.62-10.2Zm4.39,10.34c0,2.23-1.37,4.63-4.39,4.63-2.54,0-4.46-2.02-4.46-4.77,0-2.23,1.37-4.63,4.38-4.63,2.54,0,4.46,2.02,4.46,4.7v.07Z"/><path d="M158.69,37.4c-1.45,0-2.55,.87-3.03,2.38l-2.48,8.1-2.51-8.03c-.47-1.53-1.69-2.48-3.2-2.48h-.32c-1.51,0-2.73,.95-3.2,2.48l-2.47,7.98-2.42-8.01c-.48-1.53-1.6-2.41-3.06-2.41-1.91,0-3.05,1.48-3.05,2.91,0,.58,.19,1.21,.27,1.46l4.59,13.25c.6,1.75,1.81,2.72,3.41,2.72h.18c1.59,0,2.81-.96,3.34-2.62l2.55-8,2.52,8c.53,1.67,1.75,2.62,3.34,2.62h.18c1.6,0,2.81-.96,3.41-2.71l4.74-13.46c.07-.24,.2-.79,.2-1.22,0-1.65-1.31-2.94-2.98-2.94Z"/><path d="M168.77,15.72c-3.05,0-4.87,2.35-4.87,5.12v.07c0,2.77,2,5.19,4.94,5.19s4.88-2.35,4.88-5.12v-.07c0-2.77-2-5.19-4.95-5.19Zm1.59,5.26c0,.66-.2,1.77-1.52,1.77s-1.59-1.2-1.59-1.91c0-.66,.2-1.77,1.52-1.77s1.59,1.2,1.59,1.84v.07Z"/><path d="M86.61,15.41c-2.21,0-3.65,1.58-4.07,4h8.03c-.31-2.38-1.72-4-3.96-4Z"/><path d="M168.84,7.78c-3.1,0-5.91,.97-8.17,2.6-1.04-1.52-2.8-2.46-4.91-2.46-1.09,0-2.13,.32-3.09,.92-.93-.58-2.02-.92-3.19-.92-1.03,0-2,.26-2.85,.72,.15-.52,.25-1.07,.25-1.65,0-3.33-2.72-5.84-6.33-5.84s-6.33,2.51-6.33,5.84v.07c0,.35,.03,.69,.09,1.01-.43-.1-.87-.16-1.33-.16-2.56,0-4.66,1.49-5.63,4l-.95,2.53-.89-2.41c-.92-2.58-3.07-4.12-5.75-4.12-1.71,0-3.28,.76-4.38,1.94-1.63-1.33-3.75-2.08-6.22-2.08-1.94,0-3.49,.5-4.74,1.21-.97-.68-2.15-1.07-3.43-1.07-2.44,0-4.54,1.46-5.48,3.56-2.12-2.21-5.14-3.7-8.89-3.7-7.09,0-12.64,5.77-12.64,13.2s5.54,13.06,13.17,13.06c3.34,0,6.25-1.02,8.72-3.1,1.06,1.73,2.96,2.89,5.13,2.89,3,0,5.49-2.21,5.94-5.08,.45,2.87,2.95,5.08,5.94,5.08,3.32,0,6.02-2.7,6.02-6.01v-.96l1.21,2.8c1.18,2.77,3.4,4.35,6.1,4.35h.28c2.67,0,4.89-1.58,6.09-4.33l1.96-4.52v2.66c0,3.32,2.7,6.01,6.02,6.01,1.78,0,3.37-.78,4.47-2,1.1,1.23,2.7,2,4.47,2,3.32,0,6.02-2.7,6.02-6.01v-4.52c1.1,6.18,6.53,10.74,13.27,10.74,7.6,0,13.56-5.77,13.56-13.2s-5.92-13.06-13.49-13.06Zm-75.68,14.96h-10.55c.53,2.42,2.21,3.68,4.59,3.68,1.47,0,2.7-.46,3.79-1.26,.38-.28,.74-.42,1.3-.42,1.19,0,2.07,.91,2.07,2.1,0,.7-.31,1.23-.7,1.58-1.65,1.4-3.79,2.28-6.52,2.28-5.65,0-9.82-3.96-9.82-9.71v-.07c0-5.37,3.82-9.78,9.29-9.78,6.28,0,9.05,5.15,9.05,9.05,0,1.54-1.09,2.56-2.49,2.56Zm22.37,5.08c0,1.47-1.19,2.66-2.67,2.66s-2.66-1.19-2.66-2.66v-8.03c0-2.53-1.19-3.82-3.23-3.82s-3.33,1.3-3.33,3.82v8.03c0,1.47-1.19,2.66-2.67,2.66s-2.66-1.19-2.66-2.66V13.94c0-1.47,1.19-2.67,2.66-2.67s2.67,1.19,2.67,2.67v.21c1.23-1.58,2.8-3.02,5.5-3.02,4.03,0,6.38,2.67,6.38,6.98v9.71Zm19.71-12.76l-5.75,13.29c-.6,1.37-1.58,2.31-3.02,2.31h-.28c-1.44,0-2.42-.91-3.02-2.31l-5.75-13.29c-.14-.35-.28-.81-.28-1.3,0-1.26,1.16-2.49,2.6-2.49s2.21,.81,2.6,1.89l4.03,10.9,4.1-10.97c.35-.91,1.09-1.82,2.49-1.82s2.56,1.09,2.56,2.53c0,.46-.18,1.02-.28,1.26Zm7.96,12.76c0,1.47-1.19,2.66-2.66,2.66s-2.67-1.19-2.67-2.66V13.94c0-1.47,1.19-2.67,2.67-2.67s2.66,1.19,2.66,2.67v13.88Zm.32-20.76c0,1.54-1.3,2.52-2.98,2.52s-2.98-.98-2.98-2.52v-.07c0-1.54,1.3-2.49,2.98-2.49s2.98,.95,2.98,2.49v.07Zm12.83,9.29c-2.7,.63-4.21,2.7-4.21,6.49v4.98c0,1.47-1.19,2.66-2.67,2.66s-2.66-1.19-2.66-2.66V13.94c0-1.47,1.19-2.67,2.66-2.67s2.67,1.19,2.67,2.67v.84c.77-1.82,2.03-3.51,3.61-3.51s2.59,1.09,2.59,2.6c0,1.4-.91,2.24-2,2.49Zm12.41,14.34c-5.82,0-10.13-4.31-10.13-9.71v-.07c0-5.4,4.35-9.78,10.2-9.78s10.13,4.31,10.13,9.71v.07c0,5.4-4.35,9.78-10.21,9.78Z"/></svg>