<svg xmlns="http://www.w3.org/2000/svg" viewBox="0 0 210.74 63.16"><path d="M51.68 37.13c2.5-.47 4.69-1.63 6.44-3.24a10.47 10.47 0 0 0 4.72-10.81 10.4 10.4 0 0 0-1.26-3.28 13.07 13.07 0 0 0-5.9-6.97 8.81 8.81 0 0 0-8.69-7.57c-1.77 0-3.41.53-4.79 1.43a16.96 16.96 0 0 0-12.8-2.74 20.85 20.85 0 0 0-9.28 4.3 5.77 5.77 0 0 0-3.33-3.75 5.78 5.78 0 0 0-6.5 1.36L8.68 7.55l-2.33-.1A5.7 5.7 0 0 0 .74 11a5.77 5.77 0 0 0 1.35 6.5l1.69 1.61-.1 2.34a5.8 5.8 0 0 0 1.42 4.07A10.47 10.47 0 0 0 .75 36.06c.23 1.2.68 2.28 1.26 3.28a13 13 0 0 0 2.58 4.28 10.9 10.9 0 0 0-1.18 4.87 10.98 10.98 0 0 0 20.56 5.45 16.94 16.94 0 0 0 10.22 1.25c2.56-.48 4.9-1.42 7-2.7a5.31 5.31 0 0 0 3.77 1.33l1-.02.68.74a5.54 5.54 0 0 0 6.21 1.44 5.53 5.53 0 0 0 3.52-5.3l-.02-1 .75-.68a5.54 5.54 0 0 0 1.43-6.2 5.54 5.54 0 0 0-5.19-3.52h-.11l-1 .02-.68-.75a6 6 0 0 0-.58-.55c.04-.25.1-.5.13-.75l.6-.11ZM5.23 14.21a1.28 1.28 0 0 1 .93-2.2l3.82.16c.37.02.72-.13.98-.4l2.63-2.78a1.28 1.28 0 0 1 2.2.93l-.16 3.82c-.02.37.13.72.4.98l2.78 2.63c.85.81.25 2.24-.93 2.2l-3.82-.16c-.37-.02-.72.13-.98.4l-2.63 2.78c-.81.85-2.24.25-2.2-.93l.16-3.82c.02-.37-.13-.72-.4-.98l-2.78-2.63Zm9.21 40.75a6.47 6.47 0 1 1 0-12.95 6.47 6.47 0 0 1 0 12.95Zm38.87-11.12a1.03 1.03 0 0 1 .71 1.79l-1.93 1.75c-.22.2-.34.49-.34.78l.05 2.61a1.03 1.03 0 0 1-1.79.71l-1.75-1.93c-.2-.22-.49-.34-.78-.34l-2.61.05a1.03 1.03 0 0 1-.71-1.79l1.93-1.75c.22-.2.34-.49.34-.78l-.05-2.61a1.03 1.03 0 0 1 1.79-.71l1.75 1.93c.2.22.49.34.78.34l2.61-.05Zm-6.32-25.49a4.26 4.26 0 1 1 0-8.53 4.26 4.26 0 0 1 0 8.53Z"/><path fill="silver" d="m36.16 21.23.06 1.63a2.34 2.34 0 0 0 2.35 2.25h1.64c2.35-.02 3.25 3.06 1.26 4.31l-1.38.87a2.33 2.33 0 0 0-.77 3.16l.83 1.41c1.19 2.03-1.03 4.35-3.11 3.25l-1.45-.76a2.33 2.33 0 0 0-3.12.91l-.81 1.42c-1.16 2.04-4.28 1.28-4.37-1.07l-.06-1.63a2.34 2.34 0 0 0-2.35-2.25h-1.64c-2.35.02-3.25-3.06-1.26-4.31l1.38-.87a2.33 2.33 0 0 0 .77-3.16l-.83-1.41c-1.19-2.03 1.03-4.35 3.11-3.25l1.45.76c1.12.59 2.5.19 3.12-.91l.81-1.42c1.16-2.04 4.28-1.28 4.37 1.07Z"/><path d="M93.46 39.46a3.16 3.16 0 0 0-3.15 3.15v8.03c0 2.15-1.01 3.33-2.84 3.33s-2.74-1.12-2.74-3.33v-8.03a3.16 3.16 0 0 0-6.3 0v9.71c0 4.6 2.63 7.46 6.87 7.46a6.74 6.74 0 0 0 5.16-2.34 3.15 3.15 0 0 0 6.16-.95V42.61a3.15 3.15 0 0 0-3.15-3.15Zm15.15 0c-1.19 0-2.33.8-3.25 2.25a3.16 3.16 0 0 0-6.17.9v13.88a3.15 3.15 0 1 0 6.3 0v-4.98c0-3.44 1.25-5.41 3.83-6.01a2.92 2.92 0 0 0 2.38-2.96 2.92 2.92 0 0 0-3.08-3.08Zm16.03-.14c-2.14 0-3.9.73-5.37 2.21v-5.72a3.16 3.16 0 0 0-6.3 0V56.5a3.15 3.15 0 0 0 6.12 1.05 7.63 7.63 0 0 0 5.55 2.24c4.49 0 9.04-3.5 9.04-10.27s-4.55-10.2-9.04-10.2Zm2.74 10.2v.07c0 2.72-1.73 4.7-4.11 4.7s-4.07-1.98-4.07-4.77 1.71-4.7 4.07-4.7 4.11 2.02 4.11 4.7Zm16.03-10.06c-2.39 0-4.3.31-6.17 1.01a2.7 2.7 0 0 0-1.75 2.53 2.66 2.66 0 0 0 2.7 2.66c.31 0 .57-.05.92-.16 1.1-.34 2.25-.5 3.54-.5 2.21 0 3.39.87 3.53 2.59a13.97 13.97 0 0 0-4.09-.58c-5.12 0-8.06 2.36-8.06 6.48v.07c0 3.73 2.79 6.24 6.94 6.24 2.18 0 3.95-.62 5.38-1.89.4.96 1.41 1.75 2.86 1.75a3.03 3.03 0 0 0 3.08-3.05v-8.56c0-2.76-.73-4.9-2.18-6.34-1.49-1.49-3.74-2.25-6.69-2.25Zm2.84 12.24v.63c0 1.68-1.48 2.81-3.68 2.81-1.17 0-2.42-.47-2.42-1.86 0-1.83 2-2.11 3.2-2.11 1.03 0 2.05.19 2.91.53Zm19.74-12.38a6.74 6.74 0 0 0-5.16 2.34 3.15 3.15 0 0 0-6.16.95v13.88a3.15 3.15 0 1 0 6.3 0v-8.03c0-2.15 1.01-3.33 2.84-3.33s2.74 1.12 2.74 3.33v8.03a3.15 3.15 0 1 0 6.3 0v-9.71c0-4.61-2.63-7.47-6.87-7.47Zm2.78-23.6c-3.05 0-4.87 2.35-4.87 5.12v.07c0 2.77 2 5.19 4.94 5.19s4.88-2.35 4.88-5.12v-.07c0-2.77-2-5.19-4.95-5.19Zm1.59 5.26c0 .66-.2 1.77-1.52 1.77s-1.59-1.2-1.59-1.91c0-.66.2-1.77 1.52-1.77s1.59 1.2 1.59 1.84v.07Zm-83.75-5.57c-2.21 0-3.65 1.58-4.07 4h8.03c-.31-2.38-1.72-4-3.96-4Z"/><path d="M168.84 7.78c-3.1 0-5.91.97-8.17 2.6a5.8 5.8 0 0 0-4.91-2.46c-1.09 0-2.13.32-3.09.92a6 6 0 0 0-6.04-.2c.15-.52.25-1.07.25-1.65 0-3.33-2.72-5.84-6.33-5.84s-6.33 2.51-6.33 5.84v.07c0 .35.03.69.09 1.01a5.91 5.91 0 0 0-6.96 3.84l-.95 2.53-.89-2.41a6.02 6.02 0 0 0-10.13-2.18 9.66 9.66 0 0 0-6.22-2.08 9.4 9.4 0 0 0-4.74 1.21 6 6 0 0 0-8.91 2.49 12.06 12.06 0 0 0-8.89-3.7c-7.09 0-12.64 5.77-12.64 13.2s5.54 13.06 13.17 13.06a13.1 13.1 0 0 0 8.72-3.1 6.02 6.02 0 0 0 11.07-2.19 6.02 6.02 0 0 0 11.96-.93v-.96l1.21 2.8c1.18 2.77 3.4 4.35 6.1 4.35h.28c2.67 0 4.89-1.58 6.09-4.33l1.96-4.52v2.66a6.02 6.02 0 0 0 10.49 4.01 6.02 6.02 0 0 0 10.49-4.01v-4.52c1.1 6.18 6.53 10.74 13.27 10.74 7.6 0 13.56-5.77 13.56-13.2s-5.92-13.06-13.49-13.06ZM93.16 22.74H82.61c.53 2.42 2.21 3.68 4.59 3.68 1.47 0 2.7-.46 3.79-1.26.38-.28.74-.42 1.3-.42 1.19 0 2.07.91 2.07 2.1 0 .7-.31 1.23-.7 1.58a9.76 9.76 0 0 1-6.52 2.28c-5.65 0-9.82-3.96-9.82-9.71v-.07c0-5.37 3.82-9.78 9.29-9.78 6.28 0 9.05 5.15 9.05 9.05 0 1.54-1.09 2.56-2.49 2.56Zm22.37 5.08a2.66 2.66 0 0 1-5.33 0v-8.03c0-2.53-1.19-3.82-3.23-3.82s-3.33 1.3-3.33 3.82v8.03a2.66 2.66 0 0 1-5.33 0V13.94a2.67 2.67 0 1 1 5.33 0v.21c1.23-1.58 2.8-3.02 5.5-3.02 4.03 0 6.38 2.67 6.38 6.98v9.71Zm19.71-12.76-5.75 13.29c-.6 1.37-1.58 2.31-3.02 2.31h-.28c-1.44 0-2.42-.91-3.02-2.31l-5.75-13.29a3.56 3.56 0 0 1-.28-1.3c0-1.26 1.16-2.49 2.6-2.49s2.21.81 2.6 1.89l4.03 10.9 4.1-10.97c.35-.91 1.09-1.82 2.49-1.82s2.56 1.09 2.56 2.53a3.8 3.8 0 0 1-.28 1.26Zm7.96 12.76a2.66 2.66 0 1 1-5.33 0V13.94a2.67 2.67 0 1 1 5.33 0v13.88Zm.32-20.76c0 1.54-1.3 2.52-2.98 2.52s-2.98-.98-2.98-2.52v-.07c0-1.54 1.3-2.49 2.98-2.49s2.98.95 2.98 2.49v.07Zm12.83 9.29c-2.7.63-4.21 2.7-4.21 6.49v4.98a2.66 2.66 0 0 1-5.33 0V13.94a2.67 2.67 0 1 1 5.33 0v.84c.77-1.82 2.03-3.51 3.61-3.51s2.59 1.09 2.59 2.6c0 1.4-.91 2.24-2 2.49Zm12.41 14.34c-5.82 0-10.13-4.31-10.13-9.71v-.07c0-5.4 4.35-9.78 10.2-9.78s10.13 4.31 10.13 9.71v.07c0 5.4-4.35 9.78-10.21 9.78Z"/></svg>