<svg xmlns="http://www.w3.org/2000/svg" viewBox="0 0 210.74 63.16"><path d="M59.12 15.9a4.43 4.43 0 0 0-5.21-2.16 23.11 23.11 0 0 0-7.3 3.73c-.7-5.2-3.46-10.01-7.85-13.65a4.43 4.43 0 0 0-5.64 0 21.64 21.64 0 0 0-7.68 12.58 20.06 20.06 0 0 0-3.79-4.39C17.37 8.34 11.67 6.63 5.57 7.2a4.43 4.43 0 0 0-3.99 3.99c-.57 6.09 1.13 11.8 4.8 16.07.58.67 1.19 1.3 1.85 1.88a4.44 4.44 0 0 0-2.36 3.51c-.57 6.09 1.13 11.8 4.8 16.08a20.23 20.23 0 0 0 12.79 6.82l6.31 6.31a4.4 4.4 0 0 0 3.12 1.29h5.35a4.4 4.4 0 0 0 2.88-1.07 23.82 23.82 0 0 0 6.4-8.43l4.09-9.88a20.29 20.29 0 0 0 9.21-11.2c1.76-5.35 1.15-11.28-1.71-16.69ZM48.15 40.64l-4.7 11.34c-.97 2.34-2.94 4.83-5.2 6.77H32.9l-7.42-7.42c-9.52-.56-16.15-8.17-15.21-18.24 10.07-.95 17.69 5.69 18.24 15.21l5.28 5.28v-5.55c0-2.96-1.83-7.38-3.92-9.47l-8.68-8.68c-9.52-.56-16.16-8.18-15.21-18.24 10.07-.95 17.69 5.69 18.24 15.21l8.68 8.68c.3.31.6.65.89 1.01v-5.63c-6.34-7.12-5.64-17.2 2.15-23.65 7.79 6.45 8.49 16.53 2.15 23.65V52.7a11.3 11.3 0 0 0 1.4-2.34l4.7-11.34c-3.13-9.01 1.37-18.06 11.03-21.03 4.73 8.94 1.52 18.51-7.07 22.67Z"/><path fill="#fff" d="m44.18 39-4.7 11.34c-.31.75-.8 1.55-1.4 2.34V30.89c6.34-7.13 5.64-17.21-2.15-23.65-7.79 6.45-8.49 16.53-2.15 23.65v5.63c-.29-.36-.58-.71-.89-1.01l-8.68-8.68c-.56-9.52-8.18-16.15-18.24-15.21-.95 10.07 5.69 17.69 15.21 18.24l8.68 8.68c2.09 2.09 3.92 6.52 3.92 9.47v5.55l-5.28-5.28c-.55-9.52-8.18-16.16-18.24-15.21-.95 10.07 5.68 17.69 15.21 18.24l7.42 7.42h5.35c2.25-1.94 4.23-4.43 5.2-6.77l4.7-11.34c8.58-4.16 11.8-13.73 7.07-22.67-9.66 2.98-14.16 12.02-11.03 21.03Z"/><path fill="silver" d="M37.89 25.9c2.5-3.77 1.83-8.6-2.03-11.8-3.86 3.19-4.53 8.02-2.03 11.8a2.45 2.45 0 0 0 2.03 1.11c.82 0 1.58-.43 2.03-1.11Z"/><path d="M94.51 37.4c-1.38 0-2.56.88-2.98 2.13a7.84 7.84 0 0 0-5.75-2.27c-4.39 0-8.83 3.18-8.83 9.33s4.44 9.25 8.83 9.25a7.5 7.5 0 0 0 5.64-2.28c-.11 2.92-1.67 4.28-4.87 4.28a11.7 11.7 0 0 1-5-1.08 2.76 2.76 0 0 0-1.07-.21 2.66 2.66 0 0 0-.84 5.18c2.29.91 4.53 1.33 7.05 1.33 3.89 0 6.65-.87 8.45-2.67 1.68-1.68 2.53-4.28 2.53-7.74v-12.1a3.16 3.16 0 0 0-3.15-3.15Zm-3.08 9.11v.07c0 2.24-1.73 3.86-4.11 3.86s-4.07-1.59-4.07-3.93 1.71-3.86 4.07-3.86 4.11 1.62 4.11 3.86Zm18.24-9.11c-1.19 0-2.33.8-3.25 2.25a3.16 3.16 0 0 0-6.17.9v13.89a3.15 3.15 0 1 0 6.3 0v-4.98c0-3.44 1.25-5.41 3.83-6.01a2.92 2.92 0 0 0 2.38-2.97 2.92 2.92 0 0 0-3.08-3.08Zm13.01-.14c-5.99 0-10.69 4.51-10.69 10.27v.07c0 5.72 4.67 10.2 10.62 10.2s10.69-4.51 10.69-10.34-4.67-10.2-10.62-10.2Zm4.39 10.34c0 2.23-1.37 4.63-4.39 4.63-2.54 0-4.46-2.02-4.46-4.77 0-2.23 1.37-4.63 4.38-4.63 2.54 0 4.46 2.02 4.46 4.7v.07Zm31.62-10.2c-1.45 0-2.55.87-3.03 2.38l-2.48 8.1-2.51-8.03a3.3 3.3 0 0 0-3.2-2.48h-.32a3.3 3.3 0 0 0-3.2 2.48l-2.47 7.98-2.42-8.01c-.48-1.53-1.6-2.41-3.06-2.41a2.95 2.95 0 0 0-3.05 2.91c0 .58.19 1.21.27 1.46l4.59 13.25c.6 1.75 1.81 2.72 3.41 2.72h.18c1.59 0 2.81-.96 3.34-2.62l2.55-8 2.52 8c.53 1.67 1.75 2.62 3.34 2.62h.18c1.6 0 2.81-.96 3.41-2.71l4.74-13.46c.07-.24.2-.79.2-1.22a2.93 2.93 0 0 0-2.98-2.94Zm10.08-21.68c-3.05 0-4.87 2.35-4.87 5.12v.07c0 2.77 2 5.19 4.94 5.19s4.88-2.35 4.88-5.12v-.07c0-2.77-2-5.19-4.95-5.19Zm1.59 5.26c0 .66-.2 1.77-1.52 1.77s-1.59-1.2-1.59-1.91c0-.66.2-1.77 1.52-1.77s1.59 1.2 1.59 1.84v.07Zm-83.75-5.57c-2.21 0-3.65 1.58-4.07 4h8.03c-.31-2.38-1.72-4-3.96-4Z"/><path d="M168.84 7.78c-3.1 0-5.91.97-8.17 2.6a5.8 5.8 0 0 0-4.91-2.46c-1.09 0-2.13.32-3.09.92a6 6 0 0 0-6.04-.2c.15-.52.25-1.07.25-1.65 0-3.33-2.72-5.84-6.33-5.84s-6.33 2.51-6.33 5.84v.07c0 .35.03.69.09 1.01a5.91 5.91 0 0 0-6.96 3.84l-.95 2.53-.89-2.41a6.02 6.02 0 0 0-10.13-2.18 9.66 9.66 0 0 0-6.22-2.08 9.4 9.4 0 0 0-4.74 1.21 6 6 0 0 0-8.91 2.49 12.06 12.06 0 0 0-8.89-3.7c-7.09 0-12.64 5.77-12.64 13.2s5.54 13.06 13.17 13.06a13.1 13.1 0 0 0 8.72-3.1 6.02 6.02 0 0 0 11.07-2.19 6.02 6.02 0 0 0 11.96-.93v-.96l1.21 2.8c1.18 2.77 3.4 4.35 6.1 4.35h.28c2.67 0 4.89-1.58 6.09-4.33l1.96-4.52v2.66a6.02 6.02 0 0 0 10.49 4.01 6.02 6.02 0 0 0 10.49-4.01v-4.52c1.1 6.18 6.53 10.74 13.27 10.74 7.6 0 13.56-5.77 13.56-13.2s-5.92-13.06-13.49-13.06ZM93.16 22.74H82.61c.53 2.42 2.21 3.68 4.59 3.68 1.47 0 2.7-.46 3.79-1.26.38-.28.74-.42 1.3-.42 1.19 0 2.07.91 2.07 2.1 0 .7-.31 1.23-.7 1.58a9.76 9.76 0 0 1-6.52 2.28c-5.65 0-9.82-3.96-9.82-9.71v-.07c0-5.37 3.82-9.78 9.29-9.78 6.28 0 9.05 5.15 9.05 9.05 0 1.54-1.09 2.56-2.49 2.56Zm22.37 5.08a2.66 2.66 0 0 1-5.33 0v-8.03c0-2.53-1.19-3.82-3.23-3.82s-3.33 1.3-3.33 3.82v8.03a2.66 2.66 0 0 1-5.33 0V13.94a2.67 2.67 0 1 1 5.33 0v.21c1.23-1.58 2.8-3.02 5.5-3.02 4.03 0 6.38 2.67 6.38 6.98v9.71Zm19.71-12.76-5.75 13.29c-.6 1.37-1.58 2.31-3.02 2.31h-.28c-1.44 0-2.42-.91-3.02-2.31l-5.75-13.29a3.56 3.56 0 0 1-.28-1.3c0-1.26 1.16-2.49 2.6-2.49s2.21.81 2.6 1.89l4.03 10.9 4.1-10.97c.35-.91 1.09-1.82 2.49-1.82s2.56 1.09 2.56 2.53a3.8 3.8 0 0 1-.28 1.26Zm7.96 12.76a2.66 2.66 0 1 1-5.33 0V13.94a2.67 2.67 0 1 1 5.33 0v13.88Zm.32-20.76c0 1.54-1.3 2.52-2.98 2.52s-2.98-.98-2.98-2.52v-.07c0-1.54 1.3-2.49 2.98-2.49s2.98.95 2.98 2.49v.07Zm12.83 9.29c-2.7.63-4.21 2.7-4.21 6.49v4.98a2.66 2.66 0 0 1-5.33 0V13.94a2.67 2.67 0 1 1 5.33 0v.84c.77-1.82 2.03-3.51 3.61-3.51s2.59 1.09 2.59 2.6c0 1.4-.91 2.24-2 2.49Zm12.41 14.34c-5.82 0-10.13-4.31-10.13-9.71v-.07c0-5.4 4.35-9.78 10.2-9.78s10.13 4.31 10.13 9.71v.07c0 5.4-4.35 9.78-10.21 9.78Z"/></svg>