<svg xmlns="http://www.w3.org/2000/svg" viewBox="0 0 210.74 63.16"><path d="M168.77 15.72c-3.05 0-4.87 2.35-4.87 5.12v.07c0 2.77 2 5.19 4.94 5.19s4.88-2.35 4.88-5.12v-.07c0-2.77-2-5.19-4.95-5.19Zm1.59 5.26c0 .66-.2 1.77-1.52 1.77s-1.59-1.2-1.59-1.91c0-.66.2-1.77 1.52-1.77s1.59 1.2 1.59 1.84v.07Zm-83.75-5.57c-2.21 0-3.65 1.58-4.07 4h8.03c-.31-2.38-1.72-4-3.96-4Z"/><path d="M168.84 7.78c-3.1 0-5.91.97-8.17 2.6a5.8 5.8 0 0 0-4.91-2.46c-1.09 0-2.13.32-3.09.92a6 6 0 0 0-6.04-.2c.15-.52.25-1.07.25-1.65 0-3.33-2.72-5.84-6.33-5.84s-6.33 2.51-6.33 5.84v.07c0 .35.03.69.09 1.01a5.91 5.91 0 0 0-6.96 3.84l-.95 2.53-.89-2.41a6.02 6.02 0 0 0-10.13-2.18 9.66 9.66 0 0 0-6.22-2.08 9.4 9.4 0 0 0-4.74 1.21 6 6 0 0 0-8.91 2.49 12.06 12.06 0 0 0-8.89-3.7c-7.09 0-12.64 5.77-12.64 13.2s5.54 13.06 13.17 13.06a13.1 13.1 0 0 0 8.72-3.1 6.02 6.02 0 0 0 11.07-2.19 6.02 6.02 0 0 0 11.96-.93v-.96l1.21 2.8c1.18 2.77 3.4 4.35 6.1 4.35h.28c2.67 0 4.89-1.58 6.09-4.33l1.96-4.52v2.66a6.02 6.02 0 0 0 10.49 4.01 6.02 6.02 0 0 0 10.49-4.01v-4.52c1.1 6.18 6.53 10.74 13.27 10.74 7.6 0 13.56-5.77 13.56-13.2s-5.92-13.06-13.49-13.06ZM93.16 22.74H82.61c.53 2.42 2.21 3.68 4.59 3.68 1.47 0 2.7-.46 3.79-1.26.38-.28.74-.42 1.3-.42 1.19 0 2.07.91 2.07 2.1 0 .7-.31 1.23-.7 1.58a9.76 9.76 0 0 1-6.52 2.28c-5.65 0-9.82-3.96-9.82-9.71v-.07c0-5.37 3.82-9.78 9.29-9.78 6.28 0 9.05 5.15 9.05 9.05 0 1.54-1.09 2.56-2.49 2.56Zm22.37 5.08a2.66 2.66 0 0 1-5.33 0v-8.03c0-2.53-1.19-3.82-3.23-3.82s-3.33 1.3-3.33 3.82v8.03a2.66 2.66 0 0 1-5.33 0V13.94a2.67 2.67 0 1 1 5.33 0v.21c1.23-1.58 2.8-3.02 5.5-3.02 4.03 0 6.38 2.67 6.38 6.98v9.71Zm19.71-12.76-5.75 13.29c-.6 1.37-1.58 2.31-3.02 2.31h-.28c-1.44 0-2.42-.91-3.02-2.31l-5.75-13.29a3.56 3.56 0 0 1-.28-1.3c0-1.26 1.16-2.49 2.6-2.49s2.21.81 2.6 1.89l4.03 10.9 4.1-10.97c.35-.91 1.09-1.82 2.49-1.82s2.56 1.09 2.56 2.53a3.8 3.8 0 0 1-.28 1.26Zm7.96 12.76a2.66 2.66 0 1 1-5.33 0V13.94a2.67 2.67 0 1 1 5.33 0v13.88Zm.32-20.76c0 1.54-1.3 2.52-2.98 2.52s-2.98-.98-2.98-2.52v-.07c0-1.54 1.3-2.49 2.98-2.49s2.98.95 2.98 2.49v.07Zm12.83 9.29c-2.7.63-4.21 2.7-4.21 6.49v4.98a2.66 2.66 0 0 1-5.33 0V13.94a2.67 2.67 0 1 1 5.33 0v.84c.77-1.82 2.03-3.51 3.61-3.51s2.59 1.09 2.59 2.6c0 1.4-.91 2.24-2 2.49Zm12.41 14.34c-5.82 0-10.13-4.31-10.13-9.71v-.07c0-5.4 4.35-9.78 10.2-9.78s10.13 4.31 10.13 9.71v.07c0 5.4-4.35 9.78-10.21 9.78Zm-87.62 3.84c-2.04 0-3.47 1.22-3.47 2.98v.07c0 1.75 1.46 3.01 3.47 3.01s3.47-1.27 3.47-3.08-1.43-2.98-3.47-2.98Zm0 6.76a3.16 3.16 0 0 0-3.15 3.15v13.88a3.16 3.16 0 0 0 6.3 0V44.44a3.15 3.15 0 0 0-3.15-3.15Zm17.09-.14a6.74 6.74 0 0 0-5.16 2.34 3.15 3.15 0 0 0-6.16.95v13.88a3.15 3.15 0 1 0 6.3 0v-8.03c0-2.15 1.01-3.33 2.84-3.33s2.74 1.12 2.74 3.33v8.03a3.15 3.15 0 1 0 6.3 0v-9.71c0-4.61-2.63-7.47-6.87-7.47Z"/><path d="M124.19 34.49a3.16 3.16 0 0 0-3.15 3.15v5.58a7.46 7.46 0 0 0-5.37-2.07c-4.49 0-9.04 3.5-9.04 10.27s4.55 10.2 9.04 10.2c2.21 0 4.02-.77 5.51-2.36a3.15 3.15 0 0 0 6.16-.93V37.64a3.16 3.16 0 0 0-3.15-3.15Zm-3.08 16.93c0 2.72-1.71 4.7-4.07 4.7s-4.11-2.02-4.11-4.7v-.07c0-2.72 1.73-4.7 4.11-4.7s4.07 1.98 4.07 4.77Zm18.43-10.27c-5.99 0-10.69 4.51-10.69 10.27v.07c0 5.72 4.67 10.2 10.62 10.2s10.69-4.51 10.69-10.34-4.67-10.2-10.62-10.2Zm4.39 10.34c0 2.23-1.37 4.63-4.39 4.63-2.54 0-4.46-2.02-4.46-4.77 0-2.23 1.37-4.63 4.38-4.63 2.54 0 4.46 2.02 4.46 4.7v.07Zm17.43-10.34c-5.99 0-10.69 4.51-10.69 10.27v.07c0 5.72 4.67 10.2 10.62 10.2s10.69-4.51 10.69-10.34-4.67-10.2-10.62-10.2Zm4.39 10.34c0 2.23-1.37 4.63-4.39 4.63-2.54 0-4.46-2.02-4.46-4.77 0-2.23 1.37-4.63 4.38-4.63 2.54 0 4.46 2.02 4.46 4.7v.07Zm17.17-10.2c-1.19 0-2.33.8-3.25 2.25a3.16 3.16 0 0 0-6.17.9v13.88a3.15 3.15 0 1 0 6.3 0v-4.98c0-3.44 1.25-5.41 3.83-6.01a2.92 2.92 0 0 0 2.38-2.96 2.92 2.92 0 0 0-3.08-3.08ZM60.19 27.56 35.57 9.19a7.43 7.43 0 0 0-8.71 0L3.09 27.56A7.43 7.43 0 0 0 6.2 40.93v12.72c0 4.1 3.34 7.44 7.44 7.44h36c4.1 0 7.44-3.34 7.44-7.44V40.93a7.42 7.42 0 0 0 5.84-5.05 7.4 7.4 0 0 0-2.73-8.32Zm-4.35 9.29h-2.95v16.8a3.26 3.26 0 0 1-3.25 3.25H29.17V36.85H16.56V56.9h-2.91a3.26 3.26 0 0 1-3.25-3.25v-16.8H7.45a3.25 3.25 0 0 1-1.9-5.89l23.76-18.37a3.24 3.24 0 0 1 3.8 0l24.63 18.38a3.25 3.25 0 0 1-1.9 5.89Z"/><path fill="silver" d="M36.55 36.85h10.4v11.48h-10.4z"/></svg>