<?xml version="1.0" encoding="UTF-8"?><svg id="a" xmlns="http://www.w3.org/2000/svg" viewBox="0 0 210.74 63.16"><path d="M168.77,15.72c-3.05,0-4.87,2.35-4.87,5.12v.07c0,2.77,2,5.19,4.94,5.19s4.88-2.35,4.88-5.12v-.07c0-2.77-2-5.19-4.95-5.19Zm1.59,5.26c0,.66-.2,1.77-1.52,1.77s-1.59-1.2-1.59-1.91c0-.66,.2-1.77,1.52-1.77s1.59,1.2,1.59,1.84v.07Z"/><path d="M86.61,15.41c-2.21,0-3.65,1.58-4.07,4h8.03c-.31-2.38-1.72-4-3.96-4Z"/><path d="M168.84,7.78c-3.1,0-5.91,.97-8.17,2.6-1.04-1.52-2.8-2.46-4.91-2.46-1.09,0-2.13,.32-3.09,.92-.93-.58-2.02-.92-3.19-.92-1.03,0-2,.26-2.85,.72,.15-.52,.25-1.07,.25-1.65,0-3.33-2.72-5.84-6.33-5.84s-6.33,2.51-6.33,5.84v.07c0,.35,.03,.69,.09,1.01-.43-.1-.87-.16-1.33-.16-2.56,0-4.66,1.49-5.63,4l-.95,2.53-.89-2.41c-.92-2.58-3.07-4.12-5.75-4.12-1.71,0-3.28,.76-4.38,1.94-1.63-1.33-3.75-2.08-6.22-2.08-1.94,0-3.49,.5-4.74,1.21-.97-.68-2.15-1.07-3.43-1.07-2.44,0-4.54,1.46-5.48,3.56-2.12-2.21-5.14-3.7-8.89-3.7-7.09,0-12.64,5.77-12.64,13.2s5.54,13.06,13.17,13.06c3.34,0,6.25-1.02,8.72-3.1,1.06,1.73,2.96,2.89,5.13,2.89,3,0,5.49-2.21,5.94-5.08,.45,2.87,2.95,5.08,5.94,5.08,3.32,0,6.02-2.7,6.02-6.01v-.96l1.21,2.8c1.18,2.77,3.4,4.35,6.1,4.35h.28c2.67,0,4.89-1.58,6.09-4.33l1.96-4.52v2.66c0,3.32,2.7,6.01,6.02,6.01,1.78,0,3.37-.78,4.47-2,1.1,1.23,2.7,2,4.47,2,3.32,0,6.02-2.7,6.02-6.01v-4.52c1.1,6.18,6.53,10.74,13.27,10.74,7.6,0,13.56-5.77,13.56-13.2s-5.92-13.06-13.49-13.06Zm-75.68,14.96h-10.55c.53,2.42,2.21,3.68,4.59,3.68,1.47,0,2.7-.46,3.79-1.26,.38-.28,.74-.42,1.3-.42,1.19,0,2.07,.91,2.07,2.1,0,.7-.31,1.23-.7,1.58-1.65,1.4-3.79,2.28-6.52,2.28-5.65,0-9.82-3.96-9.82-9.71v-.07c0-5.37,3.82-9.78,9.29-9.78,6.28,0,9.05,5.15,9.05,9.05,0,1.54-1.09,2.56-2.49,2.56Zm22.37,5.08c0,1.47-1.19,2.66-2.67,2.66s-2.66-1.19-2.66-2.66v-8.03c0-2.53-1.19-3.82-3.23-3.82s-3.33,1.3-3.33,3.82v8.03c0,1.47-1.19,2.66-2.67,2.66s-2.66-1.19-2.66-2.66V13.94c0-1.47,1.19-2.67,2.66-2.67s2.67,1.19,2.67,2.67v.21c1.23-1.58,2.8-3.02,5.5-3.02,4.03,0,6.38,2.67,6.38,6.98v9.71Zm19.71-12.76l-5.75,13.29c-.6,1.37-1.58,2.31-3.02,2.31h-.28c-1.44,0-2.42-.91-3.02-2.31l-5.75-13.29c-.14-.35-.28-.81-.28-1.3,0-1.26,1.16-2.49,2.6-2.49s2.21,.81,2.6,1.89l4.03,10.9,4.1-10.97c.35-.91,1.09-1.82,2.49-1.82s2.56,1.09,2.56,2.53c0,.46-.18,1.02-.28,1.26Zm7.96,12.76c0,1.47-1.19,2.66-2.66,2.66s-2.67-1.19-2.67-2.66V13.94c0-1.47,1.19-2.67,2.67-2.67s2.66,1.19,2.66,2.67v13.88Zm.32-20.76c0,1.54-1.3,2.52-2.98,2.52s-2.98-.98-2.98-2.52v-.07c0-1.54,1.3-2.49,2.98-2.49s2.98,.95,2.98,2.49v.07Zm12.83,9.29c-2.7,.63-4.21,2.7-4.21,6.49v4.98c0,1.47-1.19,2.66-2.67,2.66s-2.66-1.19-2.66-2.66V13.94c0-1.47,1.19-2.67,2.66-2.67s2.67,1.19,2.67,2.67v.84c.77-1.82,2.03-3.51,3.61-3.51s2.59,1.09,2.59,2.6c0,1.4-.91,2.24-2,2.49Zm12.41,14.34c-5.82,0-10.13-4.31-10.13-9.71v-.07c0-5.4,4.35-9.78,10.2-9.78s10.13,4.31,10.13,9.71v.07c0,5.4-4.35,9.78-10.21,9.78Z"/><path d="M81.14,34.53c-2.04,0-3.47,1.22-3.47,2.98v.07c0,1.75,1.46,3.01,3.47,3.01s3.47-1.27,3.47-3.08-1.43-2.98-3.47-2.98Z"/><path d="M81.14,41.29c-1.74,0-3.15,1.42-3.15,3.15v13.88c0,1.74,1.42,3.15,3.15,3.15s3.15-1.41,3.15-3.15v-13.88c0-1.74-1.41-3.15-3.15-3.15Z"/><path d="M98.23,41.15c-2.44,0-4.03,1.12-5.16,2.34-.4-1.28-1.6-2.2-3.01-2.2-1.74,0-3.15,1.42-3.15,3.15v13.88c0,1.74,1.41,3.15,3.15,3.15s3.15-1.41,3.15-3.15v-8.03c0-2.15,1.01-3.33,2.84-3.33s2.74,1.12,2.74,3.33v8.03c0,1.74,1.41,3.15,3.15,3.15s3.15-1.41,3.15-3.15v-9.71c0-4.61-2.63-7.47-6.87-7.47Z"/><path d="M124.19,34.49c-1.74,0-3.15,1.42-3.15,3.15v5.58c-1.51-1.41-3.24-2.07-5.37-2.07-4.49,0-9.04,3.5-9.04,10.27s4.55,10.2,9.04,10.2c2.21,0,4.02-.77,5.51-2.36,.4,1.28,1.6,2.22,3.01,2.22,1.74,0,3.15-1.41,3.15-3.15v-20.69c0-1.74-1.42-3.15-3.15-3.15Zm-3.08,16.93c0,2.72-1.71,4.7-4.07,4.7s-4.11-2.02-4.11-4.7v-.07c0-2.72,1.73-4.7,4.11-4.7s4.07,1.98,4.07,4.77Z"/><path d="M139.54,41.15c-5.99,0-10.69,4.51-10.69,10.27v.07c0,5.72,4.67,10.2,10.62,10.2s10.69-4.51,10.69-10.34-4.67-10.2-10.62-10.2Zm4.39,10.34c0,2.23-1.37,4.63-4.39,4.63-2.54,0-4.46-2.02-4.46-4.77,0-2.23,1.37-4.63,4.38-4.63,2.54,0,4.46,2.02,4.46,4.7v.07Z"/><path d="M161.36,41.15c-5.99,0-10.69,4.51-10.69,10.27v.07c0,5.72,4.67,10.2,10.62,10.2s10.69-4.51,10.69-10.34-4.67-10.2-10.62-10.2Zm4.39,10.34c0,2.23-1.37,4.63-4.39,4.63-2.54,0-4.46-2.02-4.46-4.77,0-2.23,1.37-4.63,4.38-4.63,2.54,0,4.46,2.02,4.46,4.7v.07Z"/><path d="M182.92,41.29c-1.19,0-2.33,.8-3.25,2.25-.39-1.3-1.6-2.25-3.02-2.25-1.74,0-3.15,1.42-3.15,3.15v13.88c0,1.74,1.41,3.15,3.15,3.15s3.15-1.41,3.15-3.15v-4.98c0-3.44,1.25-5.41,3.83-6.01,1.47-.33,2.38-1.47,2.38-2.96,0-1.84-1.24-3.08-3.08-3.08Z"/><path d="M60.19,27.56L35.57,9.19c-2.6-1.88-6.11-1.88-8.71,0L3.09,27.56c-2.63,1.9-3.72,5.24-2.73,8.32,.87,2.68,3.13,4.6,5.84,5.05v12.72c0,4.1,3.34,7.44,7.44,7.44H49.64c4.1,0,7.44-3.34,7.44-7.44v-12.72c2.71-.45,4.97-2.37,5.84-5.05,1-3.08-.1-6.43-2.73-8.32Zm-4.35,9.29h-2.95v16.8c0,1.79-1.46,3.25-3.25,3.25H29.17v-20.05h-12.61v20.05h-2.91c-1.79,0-3.25-1.46-3.25-3.25v-16.8h-2.95c-3.15,0-4.46-4.04-1.9-5.89L29.31,12.59c1.14-.82,2.67-.82,3.8,0l24.63,18.38c2.56,1.84,1.25,5.89-1.9,5.89Z"/><rect x="36.55" y="36.85" width="10.4" height="11.48" style="fill:silver;"/></svg>