<svg xmlns="http://www.w3.org/2000/svg" viewBox="0 0 210.74 63.16"><path d="M92.15 50.53c-.85 0-1.49.41-1.74.6a4.92 4.92 0 0 1-3.2 1.19c-2.52 0-4.28-1.93-4.28-4.77 0-2.6 1.79-4.63 4.07-4.63 1.16 0 2.03.32 3.03 1.09.3.23.95.63 1.84.63a2.9 2.9 0 0 0 2.91-2.87c0-1.02-.53-1.81-1.02-2.2-1.79-1.51-3.93-2.22-6.73-2.22a10.2 10.2 0 0 0-10.34 10.27v.07c0 5.72 4.51 10.2 10.27 10.2 2.86 0 5.08-.81 6.99-2.55.61-.56.93-1.27.93-2.04 0-1.55-1.2-2.77-2.73-2.77Zm13.56-13.04c-2.39 0-4.3.31-6.17 1.01a2.7 2.7 0 0 0-1.75 2.53 2.66 2.66 0 0 0 2.7 2.66c.31 0 .58-.05.91-.16 1.1-.34 2.26-.5 3.54-.5 2.2 0 3.39.87 3.53 2.59a13.97 13.97 0 0 0-4.09-.58c-5.12 0-8.06 2.36-8.06 6.48v.07c0 3.73 2.79 6.24 6.94 6.24 2.18 0 3.95-.62 5.38-1.89.4.96 1.41 1.75 2.86 1.75a3.03 3.03 0 0 0 3.08-3.05v-8.56c0-2.76-.73-4.9-2.18-6.34-1.49-1.49-3.74-2.25-6.69-2.25Zm2.84 12.24v.63c0 1.68-1.48 2.81-3.68 2.81-1.17 0-2.42-.47-2.42-1.86 0-1.83 2-2.11 3.19-2.11 1.03 0 2.05.19 2.91.53Zm31.23-12.39a8.1 8.1 0 0 0-6.09 2.65c-1.14-1.71-3.03-2.65-5.38-2.65a6.81 6.81 0 0 0-5.2 2.34 3.15 3.15 0 0 0-6.16.95v13.88a3.15 3.15 0 1 0 6.31 0v-8.03c0-1.52.47-3.33 2.73-3.33 1.75 0 2.63 1.12 2.63 3.33v8.03a3.16 3.16 0 0 0 6.31 0v-8.03c0-1.52.47-3.33 2.74-3.33 1.75 0 2.63 1.12 2.63 3.33v8.03a3.15 3.15 0 1 0 6.3 0v-9.78c0-4.7-2.49-7.4-6.84-7.4Zm18.1 0c-5.58 0-9.78 4.42-9.78 10.34s4.34 10.2 10.31 10.2c2.67 0 4.97-.81 6.85-2.41.56-.5.86-1.19.86-1.94 0-1.48-1.1-2.59-2.56-2.59-.62 0-1.08.15-1.59.52a5.71 5.71 0 0 1-3.49 1.17c-2.01 0-3.37-.93-3.96-2.71h9.92a2.92 2.92 0 0 0 2.98-3.05c0-3.69-2.59-9.54-9.54-9.54Zm3.38 8.28h-6.84c.5-1.93 1.74-3.02 3.46-3.02s2.96 1.09 3.38 3.02Zm17.2-8.13c-1.19 0-2.33.8-3.25 2.25a3.16 3.16 0 0 0-6.17.9v13.88a3.15 3.15 0 1 0 6.31 0v-4.98c0-3.44 1.25-5.41 3.83-6.01a2.92 2.92 0 0 0 2.38-2.96 2.92 2.92 0 0 0-3.08-3.08Zm18.42 2.24c-1.49-1.49-3.74-2.25-6.69-2.25-2.39 0-4.3.31-6.17 1.01a2.7 2.7 0 0 0-1.75 2.53 2.65 2.65 0 0 0 2.7 2.66c.31 0 .57-.05.92-.16 1.09-.34 2.25-.5 3.54-.5 2.21 0 3.39.87 3.53 2.59a13.97 13.97 0 0 0-4.09-.58c-5.12 0-8.06 2.36-8.06 6.48v.07c0 3.73 2.79 6.24 6.94 6.24 2.18 0 3.95-.62 5.38-1.89.4.96 1.41 1.75 2.85 1.75a3.03 3.03 0 0 0 3.08-3.05v-8.56c0-2.76-.73-4.9-2.17-6.34Zm-3.85 9.99v.63c0 1.68-1.48 2.81-3.68 2.81-1.17 0-2.43-.47-2.43-1.86 0-1.83 2-2.11 3.2-2.11 1.03 0 2.05.19 2.91.53Zm-24.26-34c-3.05 0-4.87 2.35-4.87 5.12v.07c0 2.77 2 5.19 4.94 5.19s4.88-2.35 4.88-5.12v-.07c0-2.77-2-5.19-4.95-5.19Zm1.59 5.26c0 .66-.2 1.77-1.52 1.77s-1.59-1.2-1.59-1.91c0-.66.2-1.77 1.52-1.77s1.59 1.2 1.59 1.84v.07Zm-83.75-5.57c-2.21 0-3.65 1.58-4.07 4h8.03c-.31-2.38-1.72-4-3.96-4Z"/><path d="M168.84 7.78c-3.1 0-5.91.97-8.17 2.6a5.8 5.8 0 0 0-4.91-2.46c-1.09 0-2.13.32-3.09.92a6 6 0 0 0-6.04-.2c.15-.52.25-1.07.25-1.65 0-3.33-2.72-5.84-6.33-5.84s-6.33 2.51-6.33 5.84v.07c0 .35.03.69.09 1.01a5.91 5.91 0 0 0-6.96 3.84l-.95 2.53-.89-2.41a6.02 6.02 0 0 0-10.13-2.18 9.66 9.66 0 0 0-6.22-2.08 9.4 9.4 0 0 0-4.74 1.21 6 6 0 0 0-8.91 2.49 12.06 12.06 0 0 0-8.89-3.7c-7.09 0-12.64 5.77-12.64 13.2s5.54 13.06 13.17 13.06a13.1 13.1 0 0 0 8.72-3.1 6.02 6.02 0 0 0 11.07-2.19 6.02 6.02 0 0 0 11.96-.93v-.96l1.21 2.8c1.18 2.77 3.4 4.35 6.1 4.35h.28c2.67 0 4.89-1.58 6.09-4.33l1.96-4.52v2.66a6.02 6.02 0 0 0 10.49 4.01 6.02 6.02 0 0 0 10.49-4.01v-4.52c1.1 6.18 6.53 10.74 13.27 10.74 7.6 0 13.56-5.77 13.56-13.2s-5.92-13.06-13.49-13.06ZM93.16 22.74H82.61c.53 2.42 2.21 3.68 4.59 3.68 1.47 0 2.7-.46 3.79-1.26.38-.28.74-.42 1.3-.42 1.19 0 2.07.91 2.07 2.1 0 .7-.31 1.23-.7 1.58a9.76 9.76 0 0 1-6.52 2.28c-5.65 0-9.82-3.96-9.82-9.71v-.07c0-5.37 3.82-9.78 9.29-9.78 6.28 0 9.05 5.15 9.05 9.05 0 1.54-1.09 2.56-2.49 2.56Zm22.37 5.08a2.66 2.66 0 0 1-5.33 0v-8.03c0-2.53-1.19-3.82-3.23-3.82s-3.33 1.3-3.33 3.82v8.03a2.66 2.66 0 0 1-5.33 0V13.94a2.67 2.67 0 1 1 5.33 0v.21c1.23-1.58 2.8-3.02 5.5-3.02 4.03 0 6.38 2.67 6.38 6.98v9.71Zm19.71-12.76-5.75 13.29c-.6 1.37-1.58 2.31-3.02 2.31h-.28c-1.44 0-2.42-.91-3.02-2.31l-5.75-13.29a3.56 3.56 0 0 1-.28-1.3c0-1.26 1.16-2.49 2.6-2.49s2.21.81 2.6 1.89l4.03 10.9 4.1-10.97c.35-.91 1.09-1.82 2.49-1.82s2.56 1.09 2.56 2.53a3.8 3.8 0 0 1-.28 1.26Zm7.96 12.76a2.66 2.66 0 1 1-5.33 0V13.94a2.67 2.67 0 1 1 5.33 0v13.88Zm.32-20.76c0 1.54-1.3 2.52-2.98 2.52s-2.98-.98-2.98-2.52v-.07c0-1.54 1.3-2.49 2.98-2.49s2.98.95 2.98 2.49v.07Zm12.83 9.29c-2.7.63-4.21 2.7-4.21 6.49v4.98a2.66 2.66 0 0 1-5.33 0V13.94a2.67 2.67 0 1 1 5.33 0v.84c.77-1.82 2.03-3.51 3.61-3.51s2.59 1.09 2.59 2.6c0 1.4-.91 2.24-2 2.49Zm12.41 14.34c-5.82 0-10.13-4.31-10.13-9.71v-.07c0-5.4 4.35-9.78 10.2-9.78s10.13 4.31 10.13 9.71v.07c0 5.4-4.35 9.78-10.21 9.78ZM57.34 6.29l-3.99-1a4.23 4.23 0 0 0-5.16 3.09l-.28 1.13-1.26.09a4.2 4.2 0 0 0-2.26.86 4.15 4.15 0 0 0-2.36-.35c-2.22.31-4.39.71-6.5 1.19C34.06 4.84 28.27 0 21.37 0S8.74 4.81 7.26 11.29l-2.63 1.76a4.25 4.25 0 0 0-1.89 3.53v2.05c0 2.35 1.9 4.25 4.25 4.25h2.56c.43.61.9 1.18 1.42 1.71v2.26a22.8 22.8 0 0 0 10.9 19.39l-2.36 5.7a4.24 4.24 0 0 0 3.92 5.87h4.45c1.11 0 2.14-.43 2.91-1.15a4.22 4.22 0 0 0 2.91 1.15h4.11c2.35 0 4.25-1.9 4.25-4.25v-5.57a22.6 22.6 0 0 0 14.38-20.6l3.99-15.96a4.25 4.25 0 0 0-3.09-5.15ZM52.2 26.85c0 8.8-6.15 16.15-14.39 18.02v8.69H33.7v-8.22c-.8 0-1.58-.07-2.35-.17l-3.47 8.39h-4.45l3.88-9.38A18.48 18.48 0 0 1 15.2 26.84v-4.16a10.42 10.42 0 0 1-3.22-4.06h-5v-2.06l4.18-2.79c.38-5.33 4.78-9.54 10.2-9.54s10.28 4.6 10.28 10.28v2.22a68.9 68.9 0 0 1 10.97-2.43l-2.75 11.02v1.52a6.18 6.18 0 0 1-10.53 4.36l-2.91 2.91a10.29 10.29 0 0 0 17.54-7.27v-1.02l3-12c1.43-.11 2.85-.19 4.29-.21L52.3 9.4l3.99 1-4.11 16.44Z"/><path d="M19.31 12.03a2.05 2.05 0 1 0 2.05 2.06c0-1.13-.92-2.06-2.05-2.06Z"/><path fill="silver" d="m52.32 8.97-5.44 21.44 5.32-4 4.11-16.44-3.99-1z"/></svg>