<?xml version="1.0" encoding="UTF-8"?><svg id="a" xmlns="http://www.w3.org/2000/svg" viewBox="0 0 210.74 63.16"><path d="M51.68,37.13c2.5-.47,4.69-1.63,6.44-3.24,3.53-2.23,5.55-6.45,4.72-10.81-.23-1.2-.68-2.28-1.26-3.28-1.09-3.03-3.22-5.46-5.9-6.97-.62-4.27-4.26-7.57-8.69-7.57-1.77,0-3.41,.53-4.79,1.43-3.61-2.48-8.15-3.62-12.8-2.74-3.53,.67-6.68,2.19-9.28,4.3-.47-1.66-1.66-3.04-3.33-3.75-2.26-.96-4.81-.42-6.5,1.36l-1.61,1.69-2.33-.1c-2.53-.1-4.66,1.29-5.61,3.55-.96,2.26-.43,4.81,1.35,6.5l1.69,1.61-.1,2.34c-.06,1.54,.46,2.97,1.42,4.07C1.81,27.81-.04,31.86,.75,36.06c.23,1.2,.68,2.28,1.26,3.28,.58,1.62,1.48,3.05,2.58,4.28-.73,1.47-1.18,3.11-1.18,4.87,0,6.08,4.95,11.03,11.03,11.03,4.09,0,7.63-2.26,9.53-5.58,3.09,1.41,6.62,1.93,10.22,1.25,2.56-.48,4.9-1.42,7-2.7,.99,.88,2.29,1.38,3.77,1.33l1-.02,.68,.74c1.09,1.2,2.58,1.84,4.12,1.84,.7,0,1.4-.13,2.09-.4,2.19-.87,3.57-2.95,3.52-5.3l-.02-1,.75-.68c1.74-1.58,2.3-4.02,1.43-6.2-.86-2.15-2.88-3.52-5.19-3.52-.04,0-.08,0-.11,0l-1,.02-.68-.75c-.18-.2-.38-.38-.58-.55,.04-.25,.1-.5,.13-.75l.6-.11ZM5.23,14.21c-.85-.81-.25-2.24,.93-2.2l3.82,.16c.37,.02,.72-.13,.98-.4l2.63-2.78c.81-.85,2.24-.25,2.2,.93l-.16,3.82c-.02,.37,.13,.72,.4,.98l2.78,2.63c.85,.81,.25,2.24-.93,2.2l-3.82-.16c-.37-.02-.72,.13-.98,.4l-2.63,2.78c-.81,.85-2.24,.25-2.2-.93l.16-3.82c.02-.37-.13-.72-.4-.98l-2.78-2.63ZM14.44,54.96c-3.57,0-6.47-2.9-6.47-6.47s2.9-6.47,6.47-6.47,6.47,2.9,6.47,6.47-2.9,6.47-6.47,6.47Zm38.87-11.12c.95-.02,1.42,1.15,.71,1.79l-1.93,1.75c-.22,.2-.34,.49-.34,.78l.05,2.61c.02,.95-1.15,1.42-1.79,.71l-1.75-1.93c-.2-.22-.49-.34-.78-.34l-2.61,.05c-.95,.02-1.42-1.15-.71-1.79l1.93-1.75c.22-.2,.34-.49,.34-.78l-.05-2.61c-.02-.95,1.15-1.42,1.79-.71l1.75,1.93c.2,.22,.49,.34,.78,.34l2.61-.05Zm-6.32-25.49c-2.35,0-4.26-1.91-4.26-4.26s1.91-4.26,4.26-4.26,4.26,1.91,4.26,4.26-1.91,4.26-4.26,4.26Z"/><path d="M36.16,21.23l.06,1.63c.05,1.26,1.09,2.26,2.35,2.25h1.64c2.35-.02,3.25,3.06,1.26,4.31l-1.38,.87c-1.07,.67-1.41,2.07-.77,3.16l.83,1.41c1.19,2.03-1.03,4.35-3.11,3.25l-1.45-.76c-1.12-.59-2.5-.19-3.12,.91l-.81,1.42c-1.16,2.04-4.28,1.28-4.37-1.07l-.06-1.63c-.05-1.26-1.09-2.26-2.35-2.25h-1.64c-2.35,.02-3.25-3.06-1.26-4.31l1.38-.87c1.07-.67,1.41-2.07,.77-3.16l-.83-1.41c-1.19-2.03,1.03-4.35,3.11-3.25l1.45,.76c1.12,.59,2.5,.19,3.12-.91l.81-1.42c1.16-2.04,4.28-1.28,4.37,1.07Z" style="fill:silver;"/><path d="M93.46,39.46c-1.74,0-3.15,1.42-3.15,3.15v8.03c0,2.15-1.01,3.33-2.84,3.33s-2.74-1.12-2.74-3.33v-8.03c0-1.74-1.42-3.15-3.15-3.15s-3.15,1.42-3.15,3.15v9.71c0,4.6,2.63,7.46,6.87,7.46,2.44,0,4.03-1.12,5.16-2.34,.4,1.28,1.6,2.2,3.01,2.2,1.74,0,3.15-1.41,3.15-3.15v-13.88c0-1.74-1.41-3.15-3.15-3.15Z"/><path d="M108.61,39.46c-1.19,0-2.33,.8-3.25,2.25-.39-1.3-1.6-2.25-3.02-2.25-1.74,0-3.15,1.42-3.15,3.15v13.88c0,1.74,1.41,3.15,3.15,3.15s3.15-1.41,3.15-3.15v-4.98c0-3.44,1.25-5.41,3.83-6.01,1.47-.33,2.38-1.47,2.38-2.96,0-1.84-1.24-3.08-3.08-3.08Z"/><path d="M124.64,39.32c-2.14,0-3.9,.73-5.37,2.21v-5.72c0-1.74-1.42-3.15-3.15-3.15s-3.15,1.42-3.15,3.15v20.69c0,1.74,1.41,3.15,3.15,3.15,1.37,0,2.54-.87,2.97-2.1,1.54,1.5,3.37,2.24,5.55,2.24,4.49,0,9.04-3.5,9.04-10.27s-4.55-10.2-9.04-10.2Zm2.74,10.2v.07c0,2.72-1.73,4.7-4.11,4.7s-4.07-1.98-4.07-4.77,1.71-4.7,4.07-4.7,4.11,2.02,4.11,4.7Z"/><path d="M143.41,39.46c-2.39,0-4.3,.31-6.17,1.01-1.05,.39-1.75,1.41-1.75,2.53,0,1.49,1.19,2.66,2.7,2.66,.31,0,.57-.05,.92-.16,1.1-.34,2.25-.5,3.54-.5,2.21,0,3.39,.87,3.53,2.59-1.05-.31-2.35-.58-4.09-.58-5.12,0-8.06,2.36-8.06,6.48v.07c0,3.73,2.79,6.24,6.94,6.24,2.18,0,3.95-.62,5.38-1.89,.4,.96,1.41,1.75,2.86,1.75,1.73,0,3.08-1.34,3.08-3.05v-8.56c0-2.76-.73-4.9-2.18-6.34-1.49-1.49-3.74-2.25-6.69-2.25Zm2.84,12.24v.63c0,1.68-1.48,2.81-3.68,2.81-1.17,0-2.42-.47-2.42-1.86,0-1.83,2-2.11,3.2-2.11,1.03,0,2.05,.19,2.91,.53Z"/><path d="M165.99,39.32c-2.44,0-4.03,1.12-5.16,2.34-.4-1.28-1.6-2.2-3.01-2.2-1.74,0-3.15,1.42-3.15,3.15v13.88c0,1.74,1.41,3.15,3.15,3.15s3.15-1.41,3.15-3.15v-8.03c0-2.15,1.01-3.33,2.84-3.33s2.74,1.12,2.74,3.33v8.03c0,1.74,1.41,3.15,3.15,3.15s3.15-1.41,3.15-3.15v-9.71c0-4.61-2.63-7.47-6.87-7.47Z"/><path d="M168.77,15.72c-3.05,0-4.87,2.35-4.87,5.12v.07c0,2.77,2,5.19,4.94,5.19s4.88-2.35,4.88-5.12v-.07c0-2.77-2-5.19-4.95-5.19Zm1.59,5.26c0,.66-.2,1.77-1.52,1.77s-1.59-1.2-1.59-1.91c0-.66,.2-1.77,1.52-1.77s1.59,1.2,1.59,1.84v.07Z"/><path d="M86.61,15.41c-2.21,0-3.65,1.58-4.07,4h8.03c-.31-2.38-1.72-4-3.96-4Z"/><path d="M168.84,7.78c-3.1,0-5.91,.97-8.17,2.6-1.04-1.52-2.8-2.46-4.91-2.46-1.09,0-2.13,.32-3.09,.92-.93-.58-2.02-.92-3.19-.92-1.03,0-2,.26-2.85,.72,.15-.52,.25-1.07,.25-1.65,0-3.33-2.72-5.84-6.33-5.84s-6.33,2.51-6.33,5.84v.07c0,.35,.03,.69,.09,1.01-.43-.1-.87-.16-1.33-.16-2.56,0-4.66,1.49-5.63,4l-.95,2.53-.89-2.41c-.92-2.58-3.07-4.12-5.75-4.12-1.71,0-3.28,.76-4.38,1.94-1.63-1.33-3.75-2.08-6.22-2.08-1.94,0-3.49,.5-4.74,1.21-.97-.68-2.15-1.07-3.43-1.07-2.44,0-4.54,1.46-5.48,3.56-2.12-2.21-5.14-3.7-8.89-3.7-7.09,0-12.64,5.77-12.64,13.2s5.54,13.06,13.17,13.06c3.34,0,6.25-1.02,8.72-3.1,1.06,1.73,2.96,2.89,5.13,2.89,3,0,5.49-2.21,5.94-5.08,.45,2.87,2.95,5.08,5.94,5.08,3.32,0,6.02-2.7,6.02-6.01v-.96l1.21,2.8c1.18,2.77,3.4,4.35,6.1,4.35h.28c2.67,0,4.89-1.58,6.09-4.33l1.96-4.52v2.66c0,3.32,2.7,6.01,6.02,6.01,1.78,0,3.37-.78,4.47-2,1.1,1.23,2.7,2,4.47,2,3.32,0,6.02-2.7,6.02-6.01v-4.52c1.1,6.18,6.53,10.74,13.27,10.74,7.6,0,13.56-5.77,13.56-13.2s-5.92-13.06-13.49-13.06Zm-75.68,14.96h-10.55c.53,2.42,2.21,3.68,4.59,3.68,1.47,0,2.7-.46,3.79-1.26,.38-.28,.74-.42,1.3-.42,1.19,0,2.07,.91,2.07,2.1,0,.7-.31,1.23-.7,1.58-1.65,1.4-3.79,2.28-6.52,2.28-5.65,0-9.82-3.96-9.82-9.71v-.07c0-5.37,3.82-9.78,9.29-9.78,6.28,0,9.05,5.15,9.05,9.05,0,1.54-1.09,2.56-2.49,2.56Zm22.37,5.08c0,1.47-1.19,2.66-2.67,2.66s-2.66-1.19-2.66-2.66v-8.03c0-2.53-1.19-3.82-3.23-3.82s-3.33,1.3-3.33,3.82v8.03c0,1.47-1.19,2.66-2.67,2.66s-2.66-1.19-2.66-2.66V13.94c0-1.47,1.19-2.67,2.66-2.67s2.67,1.19,2.67,2.67v.21c1.23-1.58,2.8-3.02,5.5-3.02,4.03,0,6.38,2.67,6.38,6.98v9.71Zm19.71-12.76l-5.75,13.29c-.6,1.37-1.58,2.31-3.02,2.31h-.28c-1.44,0-2.42-.91-3.02-2.31l-5.75-13.29c-.14-.35-.28-.81-.28-1.3,0-1.26,1.16-2.49,2.6-2.49s2.21,.81,2.6,1.89l4.03,10.9,4.1-10.97c.35-.91,1.09-1.82,2.49-1.82s2.56,1.09,2.56,2.53c0,.46-.18,1.02-.28,1.26Zm7.96,12.76c0,1.47-1.19,2.66-2.66,2.66s-2.67-1.19-2.67-2.66V13.94c0-1.47,1.19-2.67,2.67-2.67s2.66,1.19,2.66,2.67v13.88Zm.32-20.76c0,1.54-1.3,2.52-2.98,2.52s-2.98-.98-2.98-2.52v-.07c0-1.54,1.3-2.49,2.98-2.49s2.98,.95,2.98,2.49v.07Zm12.83,9.29c-2.7,.63-4.21,2.7-4.21,6.49v4.98c0,1.47-1.19,2.66-2.67,2.66s-2.66-1.19-2.66-2.66V13.94c0-1.47,1.19-2.67,2.66-2.67s2.67,1.19,2.67,2.67v.84c.77-1.82,2.03-3.51,3.61-3.51s2.59,1.09,2.59,2.6c0,1.4-.91,2.24-2,2.49Zm12.41,14.34c-5.82,0-10.13-4.31-10.13-9.71v-.07c0-5.4,4.35-9.78,10.2-9.78s10.13,4.31,10.13,9.71v.07c0,5.4-4.35,9.78-10.21,9.78Z"/></svg>