<svg xmlns="http://www.w3.org/2000/svg" viewBox="0 0 210.74 63.16"><path d="M49.88 30.87c-3.45-8.59-11.46-14.34-20.5-14.34a18.65 18.65 0 0 0-16.27 9.81C5.84 27.69.31 34.42.31 42.48c0 9.04 6.96 16.4 15.51 16.4h33.91c7.3 0 13.25-6.28 13.25-14s-5.86-13.92-13.1-14Zm-.14 23.57H15.82c-6.24 0-11.31-5.35-11.31-11.95s5.06-11.95 11.31-11.95c2.21-5.62 7.45-9.56 13.57-9.56 8.43 0 15.48 6.1 17.5 14.34h2.85c4.99 0 9.04 4.28 9.04 9.56s-4.05 9.56-9.04 9.56Z"/><path fill="silver" d="M49.88 30.87c1 .01 1.97.15 2.9.39a13.04 13.04 0 0 0 5.32-10.64c0-7.12-5.48-12.92-12.22-12.92-5.54 0-10.21 3.87-11.68 9.38a22.65 22.65 0 0 1 15.67 13.78Z"/><path d="M101.39 38.55c-1.45 0-2.55.87-3.03 2.38l-2.48 8.1L93.37 41a3.3 3.3 0 0 0-3.2-2.48h-.32a3.3 3.3 0 0 0-3.2 2.48l-2.47 7.98-2.42-8.01c-.48-1.53-1.6-2.41-3.06-2.41a2.95 2.95 0 0 0-3.05 2.91c0 .58.19 1.21.27 1.46l4.59 13.25c.6 1.75 1.81 2.72 3.41 2.72h.18c1.59 0 2.81-.96 3.34-2.62l2.55-8 2.52 8c.53 1.67 1.75 2.62 3.34 2.62h.18c1.6 0 2.81-.96 3.41-2.71l4.74-13.46c.07-.24.2-.79.2-1.22a2.93 2.93 0 0 0-2.98-2.94Zm13.02-.14c-5.58 0-9.78 4.42-9.78 10.34s4.33 10.2 10.31 10.2c2.67 0 4.97-.81 6.85-2.41.55-.5.86-1.19.86-1.94 0-1.48-1.1-2.59-2.56-2.59-.62 0-1.08.15-1.59.52a5.65 5.65 0 0 1-3.5 1.17c-2.01 0-3.37-.93-3.96-2.71h9.92c1.73 0 2.98-1.28 2.98-3.05 0-3.69-2.59-9.54-9.54-9.54Zm-3.46 8.28c.5-1.93 1.74-3.02 3.46-3.02s2.96 1.09 3.38 3.02h-6.85Zm22.6-8.14c-2.4 0-4.3.31-6.17 1.01a2.7 2.7 0 0 0-1.75 2.53 2.66 2.66 0 0 0 2.7 2.66c.31 0 .57-.05.92-.16 1.09-.34 2.25-.5 3.54-.5 2.2 0 3.39.87 3.53 2.59a13.97 13.97 0 0 0-4.09-.58c-5.12 0-8.06 2.36-8.06 6.48v.07c0 3.73 2.79 6.24 6.94 6.24 2.18 0 3.95-.62 5.38-1.89.4.96 1.41 1.75 2.86 1.75a3.03 3.03 0 0 0 3.08-3.05v-8.56c0-2.76-.73-4.9-2.18-6.34-1.49-1.49-3.74-2.25-6.69-2.25Zm2.84 12.87c0 1.68-1.48 2.81-3.68 2.81-1.17 0-2.42-.47-2.42-1.86 0-1.83 2-2.11 3.19-2.11 1.03 0 2.05.19 2.91.53v.63Zm17.19-7.13a2.77 2.77 0 1 0 0-5.54h-1.86v-1.86a3.16 3.16 0 0 0-6.3 0v1.88c-1.38.16-2.46 1.33-2.46 2.75s1.08 2.59 2.46 2.75v8.44c0 4.13 1.95 6.13 5.96 6.13a8.3 8.3 0 0 0 3.22-.56 2.68 2.68 0 0 0-1.02-5.16c-.05 0-.16 0-.28.02l-.36.02c-.9 0-1.23-.36-1.23-1.33v-7.54h1.86Zm15.43-5.88a6.7 6.7 0 0 0-5.02 2.19v-5.7a3.16 3.16 0 0 0-6.3 0v20.69a3.15 3.15 0 1 0 6.3 0v-8.03c0-2.15 1.01-3.33 2.84-3.33s2.74 1.12 2.74 3.33v8.03a3.15 3.15 0 1 0 6.3 0v-9.71c0-4.61-2.63-7.47-6.87-7.47Zm18.06 0c-5.58 0-9.78 4.42-9.78 10.34s4.33 10.2 10.31 10.2c2.67 0 4.97-.81 6.85-2.41.55-.5.86-1.19.86-1.94 0-1.48-1.1-2.59-2.56-2.59-.62 0-1.08.15-1.59.52a5.65 5.65 0 0 1-3.5 1.17c-2.01 0-3.37-.93-3.96-2.71h9.92c1.73 0 2.98-1.28 2.98-3.05 0-3.69-2.59-9.54-9.54-9.54Zm-3.46 8.28c.5-1.93 1.74-3.02 3.46-3.02s2.96 1.09 3.38 3.02h-6.85Zm24.04-8.14c-1.19 0-2.33.8-3.25 2.25a3.16 3.16 0 0 0-6.17.9v13.89a3.15 3.15 0 1 0 6.3 0v-4.98c0-3.44 1.25-5.41 3.83-6.01a2.92 2.92 0 0 0 2.38-2.97 2.92 2.92 0 0 0-3.08-3.08Zm-38.88-22.83c-3.05 0-4.87 2.35-4.87 5.12v.07c0 2.77 2 5.19 4.94 5.19s4.88-2.35 4.88-5.12v-.07c0-2.77-2-5.19-4.95-5.19Zm1.59 5.26c0 .66-.2 1.77-1.52 1.77s-1.59-1.2-1.59-1.91c0-.66.2-1.77 1.52-1.77s1.59 1.2 1.59 1.84v.07Zm-83.75-5.57c-2.21 0-3.65 1.58-4.07 4h8.03c-.31-2.38-1.72-4-3.96-4Z"/><path d="M168.84 7.78c-3.1 0-5.91.97-8.17 2.6a5.8 5.8 0 0 0-4.91-2.46c-1.09 0-2.13.32-3.09.92a6 6 0 0 0-6.04-.2c.15-.52.25-1.07.25-1.65 0-3.33-2.72-5.84-6.33-5.84s-6.33 2.51-6.33 5.84v.07c0 .35.03.69.09 1.01a5.91 5.91 0 0 0-6.96 3.84l-.95 2.53-.89-2.41a6.02 6.02 0 0 0-10.13-2.18 9.66 9.66 0 0 0-6.22-2.08 9.4 9.4 0 0 0-4.74 1.21 6 6 0 0 0-8.91 2.49 12.06 12.06 0 0 0-8.89-3.7c-7.09 0-12.64 5.77-12.64 13.2s5.54 13.06 13.17 13.06a13.1 13.1 0 0 0 8.72-3.1 6.02 6.02 0 0 0 11.07-2.19 6.02 6.02 0 0 0 11.96-.93v-.96l1.21 2.8c1.18 2.77 3.4 4.35 6.1 4.35h.28c2.67 0 4.89-1.58 6.09-4.33l1.96-4.52v2.66a6.02 6.02 0 0 0 10.49 4.01 6.02 6.02 0 0 0 10.49-4.01v-4.52c1.1 6.18 6.53 10.74 13.27 10.74 7.6 0 13.56-5.77 13.56-13.2s-5.92-13.06-13.49-13.06ZM93.16 22.74H82.61c.53 2.42 2.21 3.68 4.59 3.68 1.47 0 2.7-.46 3.79-1.26.38-.28.74-.42 1.3-.42 1.19 0 2.07.91 2.07 2.1 0 .7-.31 1.23-.7 1.58a9.76 9.76 0 0 1-6.52 2.28c-5.65 0-9.82-3.96-9.82-9.71v-.07c0-5.37 3.82-9.78 9.29-9.78 6.28 0 9.05 5.15 9.05 9.05 0 1.54-1.09 2.56-2.49 2.56Zm22.37 5.08a2.66 2.66 0 0 1-5.33 0v-8.03c0-2.53-1.19-3.82-3.23-3.82s-3.33 1.3-3.33 3.82v8.03a2.66 2.66 0 0 1-5.33 0V13.94a2.67 2.67 0 1 1 5.33 0v.21c1.23-1.58 2.8-3.02 5.5-3.02 4.03 0 6.38 2.67 6.38 6.98v9.71Zm19.71-12.76-5.75 13.29c-.6 1.37-1.58 2.31-3.02 2.31h-.28c-1.44 0-2.42-.91-3.02-2.31l-5.75-13.29a3.56 3.56 0 0 1-.28-1.3c0-1.26 1.16-2.49 2.6-2.49s2.21.81 2.6 1.89l4.03 10.9 4.1-10.97c.35-.91 1.09-1.82 2.49-1.82s2.56 1.09 2.56 2.53a3.8 3.8 0 0 1-.28 1.26Zm7.96 12.76a2.66 2.66 0 1 1-5.33 0V13.94a2.67 2.67 0 1 1 5.33 0v13.88Zm.32-20.76c0 1.54-1.3 2.52-2.98 2.52s-2.98-.98-2.98-2.52v-.07c0-1.54 1.3-2.49 2.98-2.49s2.98.95 2.98 2.49v.07Zm12.83 9.29c-2.7.63-4.21 2.7-4.21 6.49v4.98a2.66 2.66 0 0 1-5.33 0V13.94a2.67 2.67 0 1 1 5.33 0v.84c.77-1.82 2.03-3.51 3.61-3.51s2.59 1.09 2.59 2.6c0 1.4-.91 2.24-2 2.49Zm12.41 14.34c-5.82 0-10.13-4.31-10.13-9.71v-.07c0-5.4 4.35-9.78 10.2-9.78s10.13 4.31 10.13 9.71v.07c0 5.4-4.35 9.78-10.21 9.78Z"/></svg>