<?xml version="1.0" encoding="UTF-8"?><svg id="a" xmlns="http://www.w3.org/2000/svg" viewBox="0 0 134.36 134.36"><circle cx="67.18" cy="67.18" r="67.18" style="fill:#fff;"/><path d="M101.42,36.32c-.91,.01-1.8,.09-2.68,.21-1.53-10.4-10.37-19.59-22.59-22.25-11.59-2.52-22.86,1.57-28.86,9.52-1.99-.59-4.1-.9-6.29-.87-11.64,.14-20.96,9.69-20.82,21.33,.11,8.84,4.8,16.31,12.15,19.34,3.14,8.28-19.15,27.98,3.79,47.05,.58,.48,1.64,.11,1.57-.43-.15-1.26,.71-2.87,1.21-3.93,.77-1.62,3.12-1.62,3.78,.03,2.4,5.99,11.48,11.99,17.51,14.36,1.1,.43,1.74-.11,1.45-.82-.52-1.27-.59-2.94-.43-4.4,.17-1.57,2.13-2.68,3.97-1.25,4.26,3.31,11.73,5.01,19.05,3.93,.49-.07,1.05-.67,.59-1.22-1.15-1.4-1.55-3.03-.93-4.18,.58-1.08,1.3-1.25,2.82-1.72,3.51-1.1,8.46-6.45,8.86-11.94,.02-.28,.28-.46,.54-.37,1.16,.39,1.9,2.24,2.5,1.59,1.94-2.11,3.1-10.19,2.67-13.4-.05-.41,.46-.65,.72-.33,.93,1.15,2.08,1.65,2.36,1.19,1.86-2.52,2.32-6.48,2.36-9.92,9.29-2.3,16.13-10.72,16-20.7-.14-11.64-9.69-20.96-21.33-20.82Zm-42.01-4.09c1.31-5.05,7.37-7.84,13.54-6.23,6.17,1.6,10.11,7,8.79,12.04-.87,3.36-3.86,5.72-7.58,6.45l-.66,2.54c-.69,2.35-2.31,2.58-4.39,2.15,.1-.11,.18-.24,.21-.39l.73-3.59c.09-.44-.2-.87-.64-.96-.44-.09-.87,.19-.96,.64l-.73,3.6c-.03,.13-.02,.26,.02,.38-.34-.09-.7-.2-1.05-.3-.63-.18-1.23-.37-1.78-.58v-.03l1.1-3.5c.13-.43-.11-.89-.54-1.02-.43-.13-.89,.11-1.02,.54l-1.03,3.33c-1.37-.8-2.08-1.92-1.51-3.88l.59-2.2c-2.63-2.42-3.92-5.77-3.08-8.97Zm11.31,60.55c-.75,1.7-2.78,2.96-4.71,3.72l-.05-1.66c-.04-1.38-1.33-2.51-2.88-2.53-1.55-.02-2.78,1.08-2.74,2.45l.08,2.55c-1.67-.09-4.32-.66-6.05-1.31-6.34-2.39-10.45-8.13-8.56-12.42,.88-1.99,3.36-1.41,5.15-.67l-.84,2.03c-.52,1.27,.23,2.73,1.69,3.24,1.46,.52,3.07-.1,3.59-1.37l.53-1.28c.99,.51,2.49,1.1,3.98,1.36,6.67,1.15,12.04,1.8,10.79,5.87Zm9.51-4.37c-5.62-.58-8.1-9.69-19.54-6.19-9.01-10.38-16.84-5.02-23.94-5.39,3.5-7.17,5.89-16.28,4.9-21.56,3.56-1.56,15.09-5.53,24.76,4.87,7.17-2.11,15.5-2.57,25.09,6.8,.09,9.45-4.9,22.13-11.26,21.48Zm-26.63-25.51c-2.18-.61-4.45,.66-5.06,2.84-.61,2.18,.66,4.44,2.84,5.06,2.18,.61,4.45-.66,5.06-2.84,.61-2.18-.66-4.44-2.84-5.06Zm20.29,4.79c-2.18-.61-4.45,.66-5.06,2.84-.61,2.18,.66,4.45,2.84,5.06,2.18,.61,4.45-.66,5.06-2.84,.61-2.18-.66-4.44-2.84-5.06Zm-8.09-28.81c1.75,.2,3.32-1.06,3.53-2.8,.2-1.75-1.06-3.33-2.8-3.53-1.75-.2-3.33,1.05-3.53,2.8-.2,1.75,1.05,3.33,2.8,3.53Zm7.6,1.58c1.75,.2,3.33-1.06,3.53-2.8,.2-1.75-1.05-3.33-2.8-3.53-1.75-.2-3.32,1.05-3.53,2.8-.2,1.75,1.06,3.33,2.8,3.53Z"/></svg>